%TF.GenerationSoftware,KiCad,Pcbnew,10.0.1*%
%TF.CreationDate,2026-05-14T07:33:13+02:00*%
%TF.ProjectId,K_Pennywhistle,4b5f5065-6e6e-4797-9768-6973746c652e,rev?*%
%TF.SameCoordinates,Original*%
%TF.FileFunction,Soldermask,Bot*%
%TF.FilePolarity,Negative*%
%FSLAX46Y46*%
G04 Gerber Fmt 4.6, Leading zero omitted, Abs format (unit mm)*
G04 Created by KiCad (PCBNEW 10.0.1) date 2026-05-14 07:33:13*
%MOMM*%
%LPD*%
G01*
G04 APERTURE LIST*
G04 Aperture macros list*
%AMRoundRect*
0 Rectangle with rounded corners*
0 $1 Rounding radius*
0 $2 $3 $4 $5 $6 $7 $8 $9 X,Y pos of 4 corners*
0 Add a 4 corners polygon primitive as box body*
4,1,4,$2,$3,$4,$5,$6,$7,$8,$9,$2,$3,0*
0 Add four circle primitives for the rounded corners*
1,1,$1+$1,$2,$3*
1,1,$1+$1,$4,$5*
1,1,$1+$1,$6,$7*
1,1,$1+$1,$8,$9*
0 Add four rect primitives between the rounded corners*
20,1,$1+$1,$2,$3,$4,$5,0*
20,1,$1+$1,$4,$5,$6,$7,0*
20,1,$1+$1,$6,$7,$8,$9,0*
20,1,$1+$1,$8,$9,$2,$3,0*%
G04 Aperture macros list end*
%ADD10C,3.500000*%
%ADD11R,2.000000X1.905000*%
%ADD12O,2.000000X1.905000*%
%ADD13C,0.800000*%
%ADD14C,6.400000*%
%ADD15C,1.998980*%
%ADD16C,2.499360*%
%ADD17C,2.200000*%
%ADD18RoundRect,0.760000X-1.140000X-1.140000X1.140000X-1.140000X1.140000X1.140000X-1.140000X1.140000X0*%
%ADD19C,4.000000*%
%ADD20RoundRect,0.250001X0.949999X-0.949999X0.949999X0.949999X-0.949999X0.949999X-0.949999X-0.949999X0*%
%ADD21C,2.400000*%
%ADD22C,3.600000*%
%ADD23C,5.500000*%
%ADD24C,2.000000*%
%ADD25R,6.000000X10.000000*%
%ADD26C,1.440000*%
%ADD27RoundRect,0.250000X-0.750000X0.750000X-0.750000X-0.750000X0.750000X-0.750000X0.750000X0.750000X0*%
%ADD28RoundRect,0.250000X0.845000X-0.620000X0.845000X0.620000X-0.845000X0.620000X-0.845000X-0.620000X0*%
%ADD29O,2.190000X1.740000*%
%ADD30O,4.000000X5.000000*%
%ADD31O,4.000000X3.000000*%
G04 APERTURE END LIST*
D10*
%TO.C,Q1*%
X170000000Y-65000000D03*
D11*
X153340000Y-62460000D03*
D12*
X153340000Y-65000000D03*
X153340000Y-67540000D03*
%TD*%
D13*
%TO.C,H104*%
X113600000Y-41000000D03*
X114302944Y-39302944D03*
X114302944Y-42697056D03*
X116000000Y-38600000D03*
D14*
X116000000Y-41000000D03*
D13*
X116000000Y-43400000D03*
X117697056Y-39302944D03*
X117697056Y-42697056D03*
X118400000Y-41000000D03*
%TD*%
D15*
%TO.C,J4*%
X115000000Y-61000000D03*
D16*
X112460000Y-58460000D03*
X112460000Y-63540000D03*
X117540000Y-58460000D03*
X117540000Y-63540000D03*
%TD*%
D17*
%TO.C,L3*%
X172483142Y-130070742D03*
X172483142Y-124990742D03*
%TD*%
D13*
%TO.C,H103*%
X182600000Y-40875000D03*
X183302944Y-39177944D03*
X183302944Y-42572056D03*
X185000000Y-38475000D03*
D14*
X185000000Y-40875000D03*
D13*
X185000000Y-43275000D03*
X186697056Y-39177944D03*
X186697056Y-42572056D03*
X187400000Y-40875000D03*
%TD*%
D18*
%TO.C,J3*%
X170000000Y-41500000D03*
D19*
X175000000Y-41500000D03*
%TD*%
D13*
%TO.C,H101*%
X113376681Y-128682780D03*
X114079625Y-126985724D03*
X114079625Y-130379836D03*
X115776681Y-126282780D03*
D14*
X115776681Y-128682780D03*
D13*
X115776681Y-131082780D03*
X117473737Y-126985724D03*
X117473737Y-130379836D03*
X118176681Y-128682780D03*
%TD*%
D20*
%TO.C,C2*%
X135000000Y-47500000D03*
D21*
X135000000Y-40000000D03*
%TD*%
D22*
%TO.C,H107*%
X160000000Y-115000000D03*
D23*
X160000000Y-115000000D03*
%TD*%
D17*
%TO.C,L4*%
X165000000Y-130000000D03*
X165000000Y-124920000D03*
%TD*%
D19*
%TO.C,T3*%
X181468609Y-76912200D03*
X181468609Y-92912668D03*
D24*
X176488606Y-80917166D03*
X176488606Y-84917166D03*
X176488606Y-88917166D03*
X177488606Y-82917166D03*
X177488606Y-86917166D03*
X178488606Y-80917166D03*
D25*
X178488606Y-84917166D03*
D24*
X178488606Y-88917166D03*
X179488606Y-82917166D03*
X179488606Y-86917166D03*
X180488606Y-80917166D03*
X180488606Y-84917166D03*
X180488606Y-88917166D03*
%TD*%
D26*
%TO.C,RV2*%
X118460000Y-112230000D03*
X121000000Y-109690000D03*
X123540000Y-112230000D03*
%TD*%
D13*
%TO.C,H102*%
X182500000Y-128867161D03*
X183202944Y-127170105D03*
X183202944Y-130564217D03*
X184900000Y-126467161D03*
D14*
X184900000Y-128867161D03*
D13*
X184900000Y-131267161D03*
X186597056Y-127170105D03*
X186597056Y-130564217D03*
X187300000Y-128867161D03*
%TD*%
D27*
%TO.C,C25*%
X155000000Y-125500000D03*
D24*
X155000000Y-130500000D03*
%TD*%
D17*
%TO.C,L1*%
X150000000Y-42500000D03*
X150000000Y-47580000D03*
%TD*%
D22*
%TO.C,H105*%
X160000000Y-55000000D03*
D23*
X160000000Y-55000000D03*
%TD*%
D15*
%TO.C,J2*%
X181000000Y-100000000D03*
D16*
X183540000Y-102540000D03*
X183540000Y-97460000D03*
X178460000Y-102540000D03*
X178460000Y-97460000D03*
%TD*%
D22*
%TO.C,H108*%
X175000000Y-115000000D03*
D23*
X175000000Y-115000000D03*
%TD*%
D22*
%TO.C,H106*%
X175000000Y-55000000D03*
D23*
X175000000Y-55000000D03*
%TD*%
D26*
%TO.C,RV1*%
X118460000Y-98230000D03*
X121000000Y-95690000D03*
X123540000Y-98230000D03*
%TD*%
D17*
%TO.C,L2*%
X160000000Y-42420000D03*
X160000000Y-47500000D03*
%TD*%
D28*
%TO.C,J1*%
X123996633Y-124519525D03*
D29*
X123996633Y-121979525D03*
X123996633Y-119439525D03*
%TD*%
D30*
%TO.C,T2*%
X145988000Y-84963984D03*
D31*
X145988000Y-79963984D03*
X145988000Y-89963984D03*
%TD*%
D10*
%TO.C,Q2*%
X170263274Y-106110619D03*
D11*
X153603274Y-103570619D03*
D12*
X153603274Y-106110619D03*
X153603274Y-108650619D03*
%TD*%
G36*
X189943039Y-35019685D02*
G01*
X189988794Y-35072489D01*
X190000000Y-35124000D01*
X190000000Y-37376000D01*
X189980315Y-37443039D01*
X189927511Y-37488794D01*
X189876000Y-37500000D01*
X112500000Y-37500000D01*
X112500000Y-132500000D01*
X189876000Y-132500000D01*
X189943039Y-132519685D01*
X189988794Y-132572489D01*
X190000000Y-132624000D01*
X190000000Y-134876000D01*
X189980315Y-134943039D01*
X189927511Y-134988794D01*
X189876000Y-135000000D01*
X110124000Y-135000000D01*
X110056961Y-134980315D01*
X110011206Y-134927511D01*
X110000000Y-134876000D01*
X110000000Y-35124000D01*
X110019685Y-35056961D01*
X110072489Y-35011206D01*
X110124000Y-35000000D01*
X189876000Y-35000000D01*
X189943039Y-35019685D01*
G37*
M02*
