M48
; DRILL file KiCad 10.0.1 date 2026-05-14T07:59:00
; FORMAT={-:-/ absolute / metric / decimal}
; #@! TF.CreationDate,2026-05-14T07:59:00+02:00
; #@! TF.GenerationSoftware,Kicad,Pcbnew,10.0.1
; #@! TF.FileFunction,Plated,1,2,PTH
FMAT,2
METRIC
; #@! TA.AperFunction,Plated,PTH,ViaDrill
T1C0.300
; #@! TA.AperFunction,Plated,PTH,ComponentDrill
T2C0.500
; #@! TA.AperFunction,Plated,PTH,ComponentDrill
T3C0.800
; #@! TA.AperFunction,Plated,PTH,ComponentDrill
T4C1.000
; #@! TA.AperFunction,Plated,PTH,ComponentDrill
T5C1.100
; #@! TA.AperFunction,Plated,PTH,ComponentDrill
T6C1.190
; #@! TA.AperFunction,Plated,PTH,ComponentDrill
T7C1.200
; #@! TA.AperFunction,Plated,PTH,ComponentDrill
T8C1.300
; #@! TA.AperFunction,Plated,PTH,ComponentDrill
T9C1.500
; #@! TA.AperFunction,Plated,PTH,ComponentDrill
T10C2.000
; #@! TA.AperFunction,Plated,PTH,ComponentDrill
T11C2.700
; #@! TA.AperFunction,Plated,PTH,ComponentDrill
T12C3.200
%
G90
G05
T1
X111.0Y-36.0
X111.5Y-83.25
X111.5Y-85.75
X112.0Y-92.0
X112.0Y-94.5
X112.0Y-97.0
X112.0Y-99.5
X112.0Y-102.0
X112.0Y-104.5
X112.0Y-107.0
X112.0Y-109.5
X112.0Y-112.0
X112.0Y-114.5
X112.0Y-117.0
X112.0Y-119.5
X112.0Y-122.0
X112.0Y-124.5
X112.0Y-133.0
X112.25Y-38.5
X113.5Y-36.0
X114.0Y-84.5
X114.0Y-87.0
X114.5Y-93.25
X114.5Y-95.75
X114.5Y-98.25
X114.5Y-100.75
X114.5Y-103.25
X114.5Y-105.75
X114.5Y-108.25
X114.5Y-110.75
X114.5Y-113.25
X114.5Y-115.75
X114.5Y-118.25
X114.5Y-120.75
X114.5Y-123.25
X114.5Y-133.0
X116.0Y-36.0
X117.0Y-133.0
X118.5Y-36.0
X119.5Y-133.0
X119.75Y-38.5
X120.0Y-50.0
X120.0Y-76.0
X120.0Y-78.5
X120.0Y-81.0
X120.0Y-83.5
X120.0Y-86.0
X120.0Y-88.5
X120.0Y-91.0
X121.0Y-36.0
X121.25Y-52.5
X122.0Y-133.0
X122.25Y-38.5
X122.5Y-50.0
X122.5Y-77.25
X122.5Y-79.75
X122.5Y-82.25
X122.5Y-84.75
X122.5Y-87.25
X122.5Y-89.75
X122.5Y-92.25
X123.5Y-36.0
X123.75Y-52.5
X124.5Y-133.0
X124.75Y-38.5
X125.0Y-50.0
X125.0Y-78.5
X125.0Y-81.0
X125.0Y-83.5
X125.0Y-86.0
X125.0Y-88.5
X125.0Y-91.0
X126.0Y-36.0
X126.25Y-52.5
X126.25Y-126.3
X127.0Y-133.0
X127.25Y-38.5
X127.5Y-50.0
X127.5Y-123.8
X127.5Y-128.8
X128.0Y-57.5
X128.0Y-60.0
X128.0Y-62.5
X128.0Y-65.0
X128.5Y-36.0
X128.75Y-52.5
X128.75Y-126.3
X129.5Y-133.0
X129.75Y-38.5
X130.0Y-50.0
X130.0Y-112.0
X130.0Y-123.8
X130.0Y-128.8
X131.0Y-36.0
X131.25Y-52.5
X131.25Y-114.5
X132.0Y-133.0
X132.25Y-38.5
X132.5Y-50.0
X132.5Y-112.0
X132.5Y-117.0
X133.0Y-72.0
X133.0Y-74.5
X133.0Y-77.0
X133.0Y-79.5
X133.0Y-82.0
X133.0Y-84.5
X133.0Y-87.0
X133.0Y-89.5
X133.5Y-36.0
X133.75Y-114.5
X134.5Y-133.0
X135.0Y-112.0
X135.0Y-117.0
X135.5Y-73.25
X135.5Y-75.75
X135.5Y-78.25
X135.5Y-80.75
X135.5Y-83.25
X135.5Y-85.75
X135.5Y-88.25
X135.5Y-90.75
X136.0Y-36.0
X136.25Y-114.5
X137.0Y-133.0
X137.25Y-38.5
X137.5Y-50.0
X137.5Y-112.0
X137.5Y-117.0
X138.0Y-123.8
X138.0Y-128.8
X138.5Y-36.0
X138.75Y-52.5
X138.75Y-114.5
X139.25Y-126.3
X139.5Y-133.0
X139.7Y-99.5
X139.75Y-38.5
X140.0Y-50.0
X140.0Y-74.0
X140.0Y-112.0
X140.0Y-117.0
X141.0Y-36.0
X141.0Y-92.0
X141.0Y-97.0
X141.25Y-52.5
X141.25Y-114.5
X142.0Y-133.0
X142.25Y-38.5
X142.25Y-99.5
X142.5Y-50.0
X142.5Y-112.0
X142.5Y-117.0
X143.5Y-36.0
X143.5Y-97.0
X143.75Y-52.5
X143.75Y-114.5
X144.0Y-83.622
X144.0Y-86.362
X144.5Y-133.0
X144.75Y-38.5
X144.75Y-99.5
X145.0Y-50.0
X145.0Y-112.0
X145.0Y-117.0
X146.0Y-36.0
X146.0Y-67.5
X146.0Y-70.0
X146.0Y-72.5
X146.0Y-75.0
X146.0Y-97.0
X146.25Y-52.5
X146.25Y-114.5
X147.0Y-133.0
X147.25Y-38.5
X147.25Y-99.5
X147.5Y-50.0
X147.5Y-112.0
X147.5Y-117.0
X148.25Y-106.5
X148.5Y-36.0
X148.5Y-97.0
X148.75Y-52.5
X148.75Y-114.5
X149.5Y-109.0
X149.5Y-133.0
X149.75Y-38.5
X149.75Y-99.5
X150.0Y-50.0
X150.0Y-112.0
X150.0Y-117.0
X150.75Y-106.5
X151.0Y-36.0
X151.0Y-97.0
X151.25Y-52.5
X151.25Y-114.5
X152.0Y-133.0
X152.25Y-38.5
X152.25Y-99.5
X152.5Y-50.0
X152.5Y-112.0
X152.5Y-117.0
X153.5Y-36.0
X153.75Y-52.5
X153.75Y-114.5
X154.5Y-133.0
X154.75Y-38.5
X155.0Y-50.0
X155.0Y-112.0
X155.0Y-117.0
X156.0Y-36.0
X156.25Y-52.5
X156.25Y-114.5
X157.0Y-133.0
X157.25Y-38.5
X157.5Y-50.0
X158.0Y-58.0
X158.0Y-60.5
X158.0Y-63.0
X158.0Y-65.5
X158.0Y-68.0
X158.0Y-70.5
X158.0Y-73.0
X158.0Y-75.5
X158.0Y-78.0
X158.0Y-80.5
X158.0Y-90.5
X158.051Y-110.768
X158.5Y-36.0
X159.5Y-133.0
X159.75Y-38.5
X160.0Y-50.0
X160.5Y-59.25
X160.5Y-61.75
X160.5Y-64.25
X160.5Y-66.75
X160.5Y-69.25
X160.5Y-71.75
X160.5Y-74.25
X160.5Y-76.75
X160.5Y-79.25
X160.5Y-89.25
X160.5Y-91.75
X161.0Y-36.0
X162.0Y-133.0
X162.25Y-38.5
X162.5Y-50.0
X163.0Y-60.5
X163.0Y-63.0
X163.0Y-65.5
X163.0Y-68.0
X163.0Y-70.5
X163.0Y-73.0
X163.0Y-75.5
X163.0Y-78.0
X163.0Y-80.5
X163.0Y-90.5
X163.0Y-93.0
X163.0Y-95.5
X163.0Y-98.0
X163.0Y-100.5
X163.0Y-103.0
X163.0Y-105.5
X163.0Y-108.0
X163.0Y-110.5
X163.0Y-113.0
X163.5Y-36.0
X163.75Y-52.5
X164.75Y-38.5
X165.0Y-50.0
X165.5Y-71.75
X165.5Y-74.25
X165.5Y-76.75
X165.5Y-79.25
X165.5Y-89.25
X165.5Y-91.75
X165.5Y-94.25
X165.5Y-96.75
X165.5Y-99.25
X165.5Y-101.75
X165.5Y-104.25
X165.5Y-106.75
X165.5Y-109.25
X165.5Y-111.75
X165.5Y-114.25
X165.5Y-116.75
X166.0Y-36.0
X166.25Y-52.5
X167.0Y-133.0
X167.25Y-38.5
X167.5Y-50.0
X168.0Y-73.0
X168.0Y-75.5
X168.0Y-78.0
X168.0Y-80.5
X168.0Y-90.5
X168.0Y-93.0
X168.0Y-95.5
X168.0Y-98.0
X168.0Y-113.0
X168.0Y-115.5
X168.0Y-118.0
X168.5Y-36.0
X168.75Y-52.5
X169.5Y-133.0
X169.75Y-38.5
X170.0Y-50.0
X170.5Y-71.75
X170.5Y-74.25
X170.5Y-76.75
X170.5Y-79.25
X170.5Y-89.25
X170.5Y-91.75
X170.5Y-94.25
X170.5Y-96.75
X170.5Y-99.25
X170.5Y-114.25
X170.5Y-116.75
X170.5Y-119.25
X171.0Y-36.0
X171.25Y-52.5
X172.25Y-38.5
X172.5Y-50.0
X173.5Y-36.0
X174.5Y-133.0
X174.75Y-38.5
X175.0Y-50.0
X176.0Y-36.0
X177.0Y-62.0
X177.0Y-64.5
X177.0Y-67.0
X177.0Y-69.5
X177.0Y-72.0
X177.0Y-74.5
X177.0Y-77.0
X177.0Y-104.0
X177.0Y-106.5
X177.0Y-109.0
X177.0Y-111.5
X177.0Y-133.0
X177.25Y-38.5
X177.5Y-50.0
X178.5Y-36.0
X178.75Y-52.5
X179.5Y-63.25
X179.5Y-65.75
X179.5Y-68.25
X179.5Y-70.75
X179.5Y-73.25
X179.5Y-75.75
X179.5Y-78.25
X179.5Y-105.25
X179.5Y-107.75
X179.5Y-110.25
X179.5Y-112.75
X179.5Y-133.0
X179.75Y-38.5
X180.0Y-50.0
X181.0Y-36.0
X181.25Y-52.5
X182.0Y-64.5
X182.0Y-67.0
X182.0Y-69.5
X182.0Y-72.0
X182.0Y-74.5
X182.0Y-106.5
X182.0Y-109.0
X182.0Y-111.5
X182.0Y-114.0
X182.0Y-133.0
X183.5Y-36.0
X184.5Y-133.0
X186.0Y-36.0
X187.0Y-133.0
X188.5Y-36.0
T2
X113.377Y-128.683
X113.6Y-41.0
X114.08Y-126.986
X114.08Y-130.38
X114.303Y-39.303
X114.303Y-42.697
X115.777Y-126.283
X115.777Y-131.083
X116.0Y-38.6
X116.0Y-43.4
X117.474Y-126.986
X117.474Y-130.38
X117.697Y-39.303
X117.697Y-42.697
X118.177Y-128.683
X118.4Y-41.0
X182.5Y-128.867
X182.6Y-40.875
X183.203Y-127.17
X183.203Y-130.564
X183.303Y-39.178
X183.303Y-42.572
X184.9Y-126.467
X184.9Y-131.267
X185.0Y-38.475
X185.0Y-43.275
X186.597Y-127.17
X186.597Y-130.564
X186.697Y-39.178
X186.697Y-42.572
X187.3Y-128.867
X187.4Y-40.875
T3
X118.46Y-98.23
X118.46Y-112.23
X121.0Y-95.69
X121.0Y-109.69
X123.54Y-98.23
X123.54Y-112.23
T4
X155.0Y-125.5
X155.0Y-130.5
T5
X150.0Y-42.5
X150.0Y-47.58
X153.34Y-62.46
X153.34Y-65.0
X153.34Y-67.54
X153.603Y-103.571
X153.603Y-106.111
X153.603Y-108.651
X160.0Y-42.42
X160.0Y-47.5
X165.0Y-124.92
X165.0Y-130.0
X172.483Y-124.991
X172.483Y-130.071
T6
X123.997Y-119.44
X123.997Y-121.98
X123.997Y-124.52
T7
X135.0Y-40.0
X135.0Y-47.5
X176.489Y-80.917
X176.489Y-84.917
X176.489Y-88.917
X177.489Y-82.917
X177.489Y-86.917
X178.489Y-80.917
X178.489Y-88.917
X179.489Y-82.917
X179.489Y-86.917
X180.489Y-80.917
X180.489Y-84.917
X180.489Y-88.917
X181.469Y-76.912
X181.469Y-92.913
T8
X112.46Y-58.46
X112.46Y-63.54
X115.0Y-61.0
X117.54Y-58.46
X117.54Y-63.54
X178.46Y-97.46
X178.46Y-102.54
X181.0Y-100.0
X183.54Y-97.46
X183.54Y-102.54
T9
X145.988Y-79.964
X145.988Y-84.964
X145.988Y-89.964
T10
X178.489Y-84.917
T11
X170.0Y-41.5
X175.0Y-41.5
T12
X115.777Y-128.683
X116.0Y-41.0
X160.0Y-55.0
X160.0Y-115.0
X175.0Y-55.0
X175.0Y-115.0
X184.9Y-128.867
X185.0Y-40.875
M30
