%TF.GenerationSoftware,KiCad,Pcbnew,10.0.1*%
%TF.CreationDate,2026-05-14T07:58:50+02:00*%
%TF.ProjectId,K_Pennywhistle,4b5f5065-6e6e-4797-9768-6973746c652e,rev?*%
%TF.SameCoordinates,Original*%
%TF.FileFunction,Soldermask,Top*%
%TF.FilePolarity,Negative*%
%FSLAX46Y46*%
G04 Gerber Fmt 4.6, Leading zero omitted, Abs format (unit mm)*
G04 Created by KiCad (PCBNEW 10.0.1) date 2026-05-14 07:58:50*
%MOMM*%
%LPD*%
G01*
G04 APERTURE LIST*
G04 Aperture macros list*
%AMRoundRect*
0 Rectangle with rounded corners*
0 $1 Rounding radius*
0 $2 $3 $4 $5 $6 $7 $8 $9 X,Y pos of 4 corners*
0 Add a 4 corners polygon primitive as box body*
4,1,4,$2,$3,$4,$5,$6,$7,$8,$9,$2,$3,0*
0 Add four circle primitives for the rounded corners*
1,1,$1+$1,$2,$3*
1,1,$1+$1,$4,$5*
1,1,$1+$1,$6,$7*
1,1,$1+$1,$8,$9*
0 Add four rect primitives between the rounded corners*
20,1,$1+$1,$2,$3,$4,$5,0*
20,1,$1+$1,$4,$5,$6,$7,0*
20,1,$1+$1,$6,$7,$8,$9,0*
20,1,$1+$1,$8,$9,$2,$3,0*%
G04 Aperture macros list end*
%ADD10RoundRect,0.250000X-0.412500X-0.650000X0.412500X-0.650000X0.412500X0.650000X-0.412500X0.650000X0*%
%ADD11RoundRect,0.250000X0.650000X-0.412500X0.650000X0.412500X-0.650000X0.412500X-0.650000X-0.412500X0*%
%ADD12RoundRect,0.250000X-0.350000X-0.450000X0.350000X-0.450000X0.350000X0.450000X-0.350000X0.450000X0*%
%ADD13RoundRect,0.250000X0.475000X-0.337500X0.475000X0.337500X-0.475000X0.337500X-0.475000X-0.337500X0*%
%ADD14C,3.500000*%
%ADD15R,2.000000X1.905000*%
%ADD16O,2.000000X1.905000*%
%ADD17RoundRect,0.250000X-0.475000X0.337500X-0.475000X-0.337500X0.475000X-0.337500X0.475000X0.337500X0*%
%ADD18C,0.800000*%
%ADD19C,6.400000*%
%ADD20C,1.998980*%
%ADD21C,2.499360*%
%ADD22C,2.200000*%
%ADD23RoundRect,0.760000X-1.140000X-1.140000X1.140000X-1.140000X1.140000X1.140000X-1.140000X1.140000X0*%
%ADD24C,4.000000*%
%ADD25RoundRect,0.250000X0.450000X-0.350000X0.450000X0.350000X-0.450000X0.350000X-0.450000X-0.350000X0*%
%ADD26RoundRect,0.250001X0.949999X-0.949999X0.949999X0.949999X-0.949999X0.949999X-0.949999X-0.949999X0*%
%ADD27C,2.400000*%
%ADD28C,3.600000*%
%ADD29C,5.500000*%
%ADD30O,4.000000X3.000000*%
%ADD31RoundRect,0.375000X0.375000X-0.625000X0.375000X0.625000X-0.375000X0.625000X-0.375000X-0.625000X0*%
%ADD32RoundRect,0.500000X1.400000X-0.500000X1.400000X0.500000X-1.400000X0.500000X-1.400000X-0.500000X0*%
%ADD33RoundRect,0.250000X0.412500X0.650000X-0.412500X0.650000X-0.412500X-0.650000X0.412500X-0.650000X0*%
%ADD34RoundRect,0.250000X0.400000X1.450000X-0.400000X1.450000X-0.400000X-1.450000X0.400000X-1.450000X0*%
%ADD35RoundRect,0.250000X-1.450000X0.400000X-1.450000X-0.400000X1.450000X-0.400000X1.450000X0.400000X0*%
%ADD36R,4.000000X8.000000*%
%ADD37C,2.000000*%
%ADD38R,6.000000X10.000000*%
%ADD39RoundRect,0.250000X-0.650000X0.412500X-0.650000X-0.412500X0.650000X-0.412500X0.650000X0.412500X0*%
%ADD40C,1.440000*%
%ADD41RoundRect,0.250000X-0.750000X0.750000X-0.750000X-0.750000X0.750000X-0.750000X0.750000X0.750000X0*%
%ADD42RoundRect,0.243750X0.456250X-0.243750X0.456250X0.243750X-0.456250X0.243750X-0.456250X-0.243750X0*%
%ADD43RoundRect,0.250000X-0.337500X-0.475000X0.337500X-0.475000X0.337500X0.475000X-0.337500X0.475000X0*%
%ADD44RoundRect,0.250000X0.845000X-0.620000X0.845000X0.620000X-0.845000X0.620000X-0.845000X-0.620000X0*%
%ADD45O,2.190000X1.740000*%
%ADD46RoundRect,0.250000X-0.350000X0.850000X-0.350000X-0.850000X0.350000X-0.850000X0.350000X0.850000X0*%
%ADD47RoundRect,0.249997X-2.650003X2.950003X-2.650003X-2.950003X2.650003X-2.950003X2.650003X2.950003X0*%
%ADD48RoundRect,0.250000X-0.400000X-1.450000X0.400000X-1.450000X0.400000X1.450000X-0.400000X1.450000X0*%
%ADD49O,4.000000X5.000000*%
%ADD50RoundRect,0.250000X-0.450000X0.350000X-0.450000X-0.350000X0.450000X-0.350000X0.450000X0.350000X0*%
G04 APERTURE END LIST*
D10*
%TO.C,C22*%
X156875000Y-120976379D03*
X160000000Y-120976379D03*
%TD*%
D11*
%TO.C,C11*%
X153000000Y-86562500D03*
X153000000Y-83437500D03*
%TD*%
D12*
%TO.C,R14*%
X125500000Y-98500000D03*
X127500000Y-98500000D03*
%TD*%
D11*
%TO.C,C3*%
X145000000Y-44062500D03*
X145000000Y-40937500D03*
%TD*%
%TO.C,C10*%
X140475394Y-83047492D03*
X140475394Y-79922492D03*
%TD*%
D13*
%TO.C,C15*%
X138000000Y-97037500D03*
X138000000Y-94962500D03*
%TD*%
D14*
%TO.C,Q1*%
X170000000Y-65000000D03*
D15*
X153340000Y-62460000D03*
D16*
X153340000Y-65000000D03*
X153340000Y-67540000D03*
%TD*%
D17*
%TO.C,C21*%
X129000000Y-121962500D03*
X129000000Y-124037500D03*
%TD*%
D18*
%TO.C,H104*%
X113600000Y-41000000D03*
X114302944Y-39302944D03*
X114302944Y-42697056D03*
X116000000Y-38600000D03*
D19*
X116000000Y-41000000D03*
D18*
X116000000Y-43400000D03*
X117697056Y-39302944D03*
X117697056Y-42697056D03*
X118400000Y-41000000D03*
%TD*%
D10*
%TO.C,C51*%
X182500000Y-81989913D03*
X185625000Y-81989913D03*
%TD*%
D20*
%TO.C,J4*%
X115000000Y-61000000D03*
D21*
X112460000Y-58460000D03*
X112460000Y-63540000D03*
X117540000Y-58460000D03*
X117540000Y-63540000D03*
%TD*%
D22*
%TO.C,L3*%
X172483142Y-130070742D03*
X172483142Y-124990742D03*
%TD*%
D18*
%TO.C,H103*%
X182600000Y-40875000D03*
X183302944Y-39177944D03*
X183302944Y-42572056D03*
X185000000Y-38475000D03*
D19*
X185000000Y-40875000D03*
D18*
X185000000Y-43275000D03*
X186697056Y-39177944D03*
X186697056Y-42572056D03*
X187400000Y-40875000D03*
%TD*%
D23*
%TO.C,J3*%
X170000000Y-41500000D03*
D24*
X175000000Y-41500000D03*
%TD*%
D12*
%TO.C,R13*%
X146000000Y-103500000D03*
X148000000Y-103500000D03*
%TD*%
D25*
%TO.C,R3*%
X138000000Y-66500000D03*
X138000000Y-64500000D03*
%TD*%
D18*
%TO.C,H101*%
X113376681Y-128682780D03*
X114079625Y-126985724D03*
X114079625Y-130379836D03*
X115776681Y-126282780D03*
D19*
X115776681Y-128682780D03*
D18*
X115776681Y-131082780D03*
X117473737Y-126985724D03*
X117473737Y-130379836D03*
X118176681Y-128682780D03*
%TD*%
D26*
%TO.C,C2*%
X135000000Y-47500000D03*
D27*
X135000000Y-40000000D03*
%TD*%
D28*
%TO.C,H107*%
X160000000Y-115000000D03*
D29*
X160000000Y-115000000D03*
%TD*%
D22*
%TO.C,L4*%
X165000000Y-130000000D03*
X165000000Y-124920000D03*
%TD*%
D25*
%TO.C,R16*%
X142000000Y-104500000D03*
X142000000Y-102500000D03*
%TD*%
D12*
%TO.C,R18*%
X125500000Y-112500000D03*
X127500000Y-112500000D03*
%TD*%
D30*
%TO.C,T1*%
X113950780Y-80971189D03*
X113941538Y-88971189D03*
X129950780Y-88971189D03*
X129950780Y-84971189D03*
X129950780Y-80971189D03*
%TD*%
D31*
%TO.C,Q3*%
X142700000Y-125650000D03*
X145000000Y-125650000D03*
D32*
X145000000Y-119350000D03*
D31*
X147300000Y-125650000D03*
%TD*%
D33*
%TO.C,C6*%
X174562500Y-73000000D03*
X171437500Y-73000000D03*
%TD*%
D34*
%TO.C,R6*%
X126225000Y-64000000D03*
X121775000Y-64000000D03*
%TD*%
D35*
%TO.C,R7*%
X126000000Y-67775000D03*
X126000000Y-72225000D03*
%TD*%
D24*
%TO.C,T3*%
X181468609Y-76912200D03*
X181468609Y-92912668D03*
D36*
X154488606Y-78917166D03*
D37*
X176488606Y-80917166D03*
X176488606Y-84917166D03*
X176488606Y-88917166D03*
X177488606Y-82917166D03*
X177488606Y-86917166D03*
X178488606Y-80917166D03*
D38*
X178488606Y-84917166D03*
D37*
X178488606Y-88917166D03*
X179488606Y-82917166D03*
X179488606Y-86917166D03*
X180488606Y-80917166D03*
X180488606Y-84917166D03*
X180488606Y-88917166D03*
D36*
X154488606Y-90917166D03*
%TD*%
D11*
%TO.C,C4*%
X165000000Y-44062500D03*
X165000000Y-40937500D03*
%TD*%
D39*
%TO.C,C14*%
X131500000Y-94437500D03*
X131500000Y-97562500D03*
%TD*%
%TO.C,C13*%
X140500000Y-86937500D03*
X140500000Y-90062500D03*
%TD*%
D40*
%TO.C,RV2*%
X118460000Y-112230000D03*
X121000000Y-109690000D03*
X123540000Y-112230000D03*
%TD*%
D12*
%TO.C,R1*%
X146000000Y-63000000D03*
X148000000Y-63000000D03*
%TD*%
%TO.C,R19*%
X144000000Y-130000000D03*
X146000000Y-130000000D03*
%TD*%
D18*
%TO.C,H102*%
X182500000Y-128867161D03*
X183202944Y-127170105D03*
X183202944Y-130564217D03*
X184900000Y-126467161D03*
D19*
X184900000Y-128867161D03*
D18*
X184900000Y-131267161D03*
X186597056Y-127170105D03*
X186597056Y-130564217D03*
X187300000Y-128867161D03*
%TD*%
D10*
%TO.C,C18*%
X142435207Y-109995031D03*
X145560207Y-109995031D03*
%TD*%
D41*
%TO.C,C25*%
X155000000Y-125500000D03*
D37*
X155000000Y-130500000D03*
%TD*%
D10*
%TO.C,C17*%
X118937500Y-105000000D03*
X122062500Y-105000000D03*
%TD*%
D33*
%TO.C,C16*%
X174562500Y-97000000D03*
X171437500Y-97000000D03*
%TD*%
D22*
%TO.C,L1*%
X150000000Y-42500000D03*
X150000000Y-47580000D03*
%TD*%
D25*
%TO.C,R15*%
X138000000Y-104500000D03*
X138000000Y-102500000D03*
%TD*%
D28*
%TO.C,H105*%
X160000000Y-55000000D03*
D29*
X160000000Y-55000000D03*
%TD*%
D20*
%TO.C,J2*%
X181000000Y-100000000D03*
D21*
X183540000Y-102540000D03*
X183540000Y-97460000D03*
X178460000Y-102540000D03*
X178460000Y-97460000D03*
%TD*%
D42*
%TO.C,D2*%
X153500000Y-101187500D03*
X153500000Y-99312500D03*
%TD*%
D35*
%TO.C,R8*%
X121000000Y-68000000D03*
X121000000Y-72450000D03*
%TD*%
D11*
%TO.C,C9*%
X131500000Y-77062500D03*
X131500000Y-73937500D03*
%TD*%
D10*
%TO.C,C24*%
X150932308Y-120979045D03*
X154057308Y-120979045D03*
%TD*%
D43*
%TO.C,C19*%
X141962500Y-107500000D03*
X144037500Y-107500000D03*
%TD*%
D10*
%TO.C,C7*%
X142927076Y-73998065D03*
X146052076Y-73998065D03*
%TD*%
D28*
%TO.C,H108*%
X175000000Y-115000000D03*
D29*
X175000000Y-115000000D03*
%TD*%
D28*
%TO.C,H106*%
X175000000Y-55000000D03*
D29*
X175000000Y-55000000D03*
%TD*%
D17*
%TO.C,C20*%
X140000000Y-123962500D03*
X140000000Y-126037500D03*
%TD*%
D10*
%TO.C,C26*%
X173437310Y-120979045D03*
X176562310Y-120979045D03*
%TD*%
%TO.C,C23*%
X165935643Y-121000000D03*
X169060643Y-121000000D03*
%TD*%
D40*
%TO.C,RV1*%
X118460000Y-98230000D03*
X121000000Y-95690000D03*
X123540000Y-98230000D03*
%TD*%
D25*
%TO.C,R12*%
X134484710Y-102500000D03*
X134484710Y-100500000D03*
%TD*%
D22*
%TO.C,L2*%
X160000000Y-42420000D03*
X160000000Y-47500000D03*
%TD*%
D44*
%TO.C,J1*%
X123996633Y-124519525D03*
D45*
X123996633Y-121979525D03*
X123996633Y-119439525D03*
%TD*%
D10*
%TO.C,C12*%
X182437500Y-88000000D03*
X185562500Y-88000000D03*
%TD*%
D17*
%TO.C,C8*%
X138000000Y-70962500D03*
X138000000Y-73037500D03*
%TD*%
D46*
%TO.C,U1*%
X136305000Y-120375000D03*
X134025000Y-120375000D03*
D47*
X134025000Y-126675000D03*
D46*
X131745000Y-120375000D03*
%TD*%
D43*
%TO.C,C5*%
X142462500Y-70500000D03*
X144537500Y-70500000D03*
%TD*%
D25*
%TO.C,R4*%
X142000000Y-66500000D03*
X142000000Y-64500000D03*
%TD*%
D34*
%TO.C,R5*%
X126225000Y-59000000D03*
X121775000Y-59000000D03*
%TD*%
D48*
%TO.C,R9*%
X112775000Y-69000000D03*
X117225000Y-69000000D03*
%TD*%
D11*
%TO.C,C1*%
X155000000Y-44062500D03*
X155000000Y-40937500D03*
%TD*%
D48*
%TO.C,R10*%
X112775000Y-74000000D03*
X117225000Y-74000000D03*
%TD*%
D49*
%TO.C,T2*%
X145988000Y-84963984D03*
D30*
X145988000Y-79963984D03*
X145988000Y-89963984D03*
%TD*%
D50*
%TO.C,R2*%
X134000000Y-64500000D03*
X134000000Y-66500000D03*
%TD*%
D42*
%TO.C,D1*%
X153250000Y-60187500D03*
X153250000Y-58312500D03*
%TD*%
D14*
%TO.C,Q2*%
X170263274Y-106110619D03*
D15*
X153603274Y-103570619D03*
D16*
X153603274Y-106110619D03*
X153603274Y-108650619D03*
%TD*%
G36*
X112511979Y-37252382D02*
G01*
X112522034Y-37254382D01*
X112583946Y-37286767D01*
X112618520Y-37347483D01*
X112614781Y-37417252D01*
X112573915Y-37473924D01*
X112508897Y-37499506D01*
X112500100Y-37499899D01*
X112500000Y-37500000D01*
X112500000Y-132500000D01*
X187500000Y-132500000D01*
X187500000Y-37500000D01*
X187499103Y-37499103D01*
X187435117Y-37480315D01*
X187389362Y-37427511D01*
X187379418Y-37358353D01*
X187408443Y-37294797D01*
X187467221Y-37257023D01*
X187477966Y-37254382D01*
X187488021Y-37252382D01*
X187512211Y-37250000D01*
X189876000Y-37250000D01*
X189943039Y-37269685D01*
X189988794Y-37322489D01*
X190000000Y-37374000D01*
X190000000Y-134876000D01*
X189980315Y-134943039D01*
X189927511Y-134988794D01*
X189876000Y-135000000D01*
X110124000Y-135000000D01*
X110056961Y-134980315D01*
X110011206Y-134927511D01*
X110000000Y-134876000D01*
X110000000Y-37374000D01*
X110019685Y-37306961D01*
X110072489Y-37261206D01*
X110124000Y-37250000D01*
X112487789Y-37250000D01*
X112511979Y-37252382D01*
G37*
G36*
X172943039Y-56019685D02*
G01*
X172988794Y-56072489D01*
X173000000Y-56124000D01*
X173000000Y-59876000D01*
X172980315Y-59943039D01*
X172927511Y-59988794D01*
X172876000Y-60000000D01*
X166124000Y-60000000D01*
X166056961Y-59980315D01*
X166011206Y-59927511D01*
X166000000Y-59876000D01*
X166000000Y-56124000D01*
X166019685Y-56056961D01*
X166072489Y-56011206D01*
X166124000Y-56000000D01*
X172876000Y-56000000D01*
X172943039Y-56019685D01*
G37*
G36*
X172943039Y-70019685D02*
G01*
X172988794Y-70072489D01*
X173000000Y-70124000D01*
X173000000Y-73876000D01*
X172980315Y-73943039D01*
X172927511Y-73988794D01*
X172876000Y-74000000D01*
X166124000Y-74000000D01*
X166056961Y-73980315D01*
X166011206Y-73927511D01*
X166000000Y-73876000D01*
X166000000Y-70124000D01*
X166019685Y-70056961D01*
X166072489Y-70011206D01*
X166124000Y-70000000D01*
X172876000Y-70000000D01*
X172943039Y-70019685D01*
G37*
G36*
X172943039Y-111019685D02*
G01*
X172988794Y-111072489D01*
X173000000Y-111124000D01*
X173000000Y-114876000D01*
X172980315Y-114943039D01*
X172927511Y-114988794D01*
X172876000Y-115000000D01*
X166124000Y-115000000D01*
X166056961Y-114980315D01*
X166011206Y-114927511D01*
X166000000Y-114876000D01*
X166000000Y-111124000D01*
X166019685Y-111056961D01*
X166072489Y-111011206D01*
X166124000Y-111000000D01*
X172876000Y-111000000D01*
X172943039Y-111019685D01*
G37*
G36*
X172943039Y-97019685D02*
G01*
X172988794Y-97072489D01*
X173000000Y-97124000D01*
X173000000Y-100876000D01*
X172980315Y-100943039D01*
X172927511Y-100988794D01*
X172876000Y-101000000D01*
X166124000Y-101000000D01*
X166056961Y-100980315D01*
X166011206Y-100927511D01*
X166000000Y-100876000D01*
X166000000Y-97124000D01*
X166019685Y-97056961D01*
X166072489Y-97011206D01*
X166124000Y-97000000D01*
X172876000Y-97000000D01*
X172943039Y-97019685D01*
G37*
G36*
X189943039Y-35019685D02*
G01*
X189988794Y-35072489D01*
X190000000Y-35124000D01*
X190000000Y-37626000D01*
X189980315Y-37693039D01*
X189927511Y-37738794D01*
X189876000Y-37750000D01*
X187624000Y-37750000D01*
X187556961Y-37730315D01*
X187511206Y-37677511D01*
X187500000Y-37626000D01*
X187500000Y-37500000D01*
X112500000Y-37500000D01*
X112500000Y-37626000D01*
X112480315Y-37693039D01*
X112427511Y-37738794D01*
X112376000Y-37750000D01*
X110124000Y-37750000D01*
X110056961Y-37730315D01*
X110011206Y-37677511D01*
X110000000Y-37626000D01*
X110000000Y-35124000D01*
X110019685Y-35056961D01*
X110072489Y-35011206D01*
X110124000Y-35000000D01*
X189876000Y-35000000D01*
X189943039Y-35019685D01*
G37*
M02*
