%TF.GenerationSoftware,KiCad,Pcbnew,10.0.1*%
%TF.CreationDate,2026-05-14T07:58:50+02:00*%
%TF.ProjectId,K_Pennywhistle,4b5f5065-6e6e-4797-9768-6973746c652e,rev?*%
%TF.SameCoordinates,Original*%
%TF.FileFunction,Copper,L2,Bot*%
%TF.FilePolarity,Positive*%
%FSLAX46Y46*%
G04 Gerber Fmt 4.6, Leading zero omitted, Abs format (unit mm)*
G04 Created by KiCad (PCBNEW 10.0.1) date 2026-05-14 07:58:50*
%MOMM*%
%LPD*%
G01*
G04 APERTURE LIST*
G04 Aperture macros list*
%AMRoundRect*
0 Rectangle with rounded corners*
0 $1 Rounding radius*
0 $2 $3 $4 $5 $6 $7 $8 $9 X,Y pos of 4 corners*
0 Add a 4 corners polygon primitive as box body*
4,1,4,$2,$3,$4,$5,$6,$7,$8,$9,$2,$3,0*
0 Add four circle primitives for the rounded corners*
1,1,$1+$1,$2,$3*
1,1,$1+$1,$4,$5*
1,1,$1+$1,$6,$7*
1,1,$1+$1,$8,$9*
0 Add four rect primitives between the rounded corners*
20,1,$1+$1,$2,$3,$4,$5,0*
20,1,$1+$1,$4,$5,$6,$7,0*
20,1,$1+$1,$6,$7,$8,$9,0*
20,1,$1+$1,$8,$9,$2,$3,0*%
G04 Aperture macros list end*
%TA.AperFunction,ComponentPad*%
%ADD10R,2.000000X1.905000*%
%TD*%
%TA.AperFunction,ComponentPad*%
%ADD11O,2.000000X1.905000*%
%TD*%
%TA.AperFunction,ComponentPad*%
%ADD12C,0.800000*%
%TD*%
%TA.AperFunction,ComponentPad*%
%ADD13C,6.400000*%
%TD*%
%TA.AperFunction,ComponentPad*%
%ADD14C,1.998980*%
%TD*%
%TA.AperFunction,ComponentPad*%
%ADD15C,2.499360*%
%TD*%
%TA.AperFunction,ComponentPad*%
%ADD16C,2.200000*%
%TD*%
%TA.AperFunction,ComponentPad*%
%ADD17RoundRect,0.760000X-1.140000X-1.140000X1.140000X-1.140000X1.140000X1.140000X-1.140000X1.140000X0*%
%TD*%
%TA.AperFunction,ComponentPad*%
%ADD18C,4.000000*%
%TD*%
%TA.AperFunction,ComponentPad*%
%ADD19RoundRect,0.250001X0.949999X-0.949999X0.949999X0.949999X-0.949999X0.949999X-0.949999X-0.949999X0*%
%TD*%
%TA.AperFunction,ComponentPad*%
%ADD20C,2.400000*%
%TD*%
%TA.AperFunction,ComponentPad*%
%ADD21C,3.600000*%
%TD*%
%TA.AperFunction,ConnectorPad*%
%ADD22C,5.500000*%
%TD*%
%TA.AperFunction,ComponentPad*%
%ADD23C,2.000000*%
%TD*%
%TA.AperFunction,ComponentPad*%
%ADD24R,6.000000X10.000000*%
%TD*%
%TA.AperFunction,ComponentPad*%
%ADD25C,1.440000*%
%TD*%
%TA.AperFunction,ComponentPad*%
%ADD26RoundRect,0.250000X-0.750000X0.750000X-0.750000X-0.750000X0.750000X-0.750000X0.750000X0.750000X0*%
%TD*%
%TA.AperFunction,ComponentPad*%
%ADD27RoundRect,0.250000X0.845000X-0.620000X0.845000X0.620000X-0.845000X0.620000X-0.845000X-0.620000X0*%
%TD*%
%TA.AperFunction,ComponentPad*%
%ADD28O,2.190000X1.740000*%
%TD*%
%TA.AperFunction,ComponentPad*%
%ADD29O,4.000000X5.000000*%
%TD*%
%TA.AperFunction,ComponentPad*%
%ADD30O,4.000000X3.000000*%
%TD*%
%TA.AperFunction,ViaPad*%
%ADD31C,0.600000*%
%TD*%
%TA.AperFunction,Conductor*%
%ADD32C,2.900000*%
%TD*%
%TA.AperFunction,Conductor*%
%ADD33C,5.000000*%
%TD*%
%TA.AperFunction,Conductor*%
%ADD34C,1.600000*%
%TD*%
G04 APERTURE END LIST*
D10*
%TO.P,Q1,1,G_1*%
%TO.N,Net-(D1-A1)*%
X153340000Y-62460000D03*
D11*
%TO.P,Q1,2,S_2*%
%TO.N,GND*%
X153340000Y-65000000D03*
%TO.P,Q1,3,D_3*%
%TO.N,Net-(Q1-D)*%
X153340000Y-67540000D03*
%TD*%
D12*
%TO.P,H104,1,1_1*%
%TO.N,GND*%
X113600000Y-41000000D03*
X114302944Y-39302944D03*
X114302944Y-42697056D03*
X116000000Y-38600000D03*
D13*
X116000000Y-41000000D03*
D12*
X116000000Y-43400000D03*
X117697056Y-39302944D03*
X117697056Y-42697056D03*
X118400000Y-41000000D03*
%TD*%
D14*
%TO.P,J4,1,In_1*%
%TO.N,Net-(J4-In)*%
X115000000Y-61000000D03*
D15*
%TO.P,J4,2,Ext_2*%
%TO.N,GND*%
X112460000Y-58460000D03*
X112460000Y-63540000D03*
X117540000Y-58460000D03*
X117540000Y-63540000D03*
%TD*%
D16*
%TO.P,L3,1,1_1*%
%TO.N,Net-(C23-Pad1)*%
X172483142Y-130070742D03*
%TO.P,L3,2,2_2*%
%TO.N,+12V*%
X172483142Y-124990742D03*
%TD*%
D12*
%TO.P,H103,1,1_1*%
%TO.N,GND*%
X182600000Y-40875000D03*
X183302944Y-39177944D03*
X183302944Y-42572056D03*
X185000000Y-38475000D03*
D13*
X185000000Y-40875000D03*
D12*
X185000000Y-43275000D03*
X186697056Y-39177944D03*
X186697056Y-42572056D03*
X187400000Y-40875000D03*
%TD*%
D17*
%TO.P,J3,1,Pin_1_1*%
%TO.N,+12V*%
X170000000Y-41500000D03*
D18*
%TO.P,J3,2,Pin_2_2*%
%TO.N,GND*%
X175000000Y-41500000D03*
%TD*%
D12*
%TO.P,H101,1,1_1*%
%TO.N,GND*%
X113376681Y-128682780D03*
X114079625Y-126985724D03*
X114079625Y-130379836D03*
X115776681Y-126282780D03*
D13*
X115776681Y-128682780D03*
D12*
X115776681Y-131082780D03*
X117473737Y-126985724D03*
X117473737Y-130379836D03*
X118176681Y-128682780D03*
%TD*%
D19*
%TO.P,C2,1*%
%TO.N,Net-(T3-SC)*%
X135000000Y-47500000D03*
D20*
%TO.P,C2,2*%
%TO.N,GND*%
X135000000Y-40000000D03*
%TD*%
D21*
%TO.P,H107,1,1_1*%
%TO.N,GND*%
X160000000Y-115000000D03*
D22*
X160000000Y-115000000D03*
%TD*%
D16*
%TO.P,L4,1,1_1*%
%TO.N,Net-(Q3-S)*%
X165000000Y-130000000D03*
%TO.P,L4,2,2_2*%
%TO.N,Net-(C23-Pad1)*%
X165000000Y-124920000D03*
%TD*%
D18*
%TO.P,T3,1,AA_1*%
%TO.N,GND*%
X181468609Y-76912200D03*
%TO.P,T3,2,AB_2*%
%TO.N,Net-(J2-In)*%
X181468609Y-92912668D03*
D23*
%TO.P,T3,4,SC_4*%
%TO.N,Net-(T3-SC)*%
X176488606Y-80917166D03*
X176488606Y-84917166D03*
X176488606Y-88917166D03*
X177488606Y-82917166D03*
X177488606Y-86917166D03*
X178488606Y-80917166D03*
D24*
X178488606Y-84917166D03*
D23*
X178488606Y-88917166D03*
X179488606Y-82917166D03*
X179488606Y-86917166D03*
X180488606Y-80917166D03*
X180488606Y-84917166D03*
X180488606Y-88917166D03*
%TD*%
D25*
%TO.P,RV2,1,1_1*%
%TO.N,Net-(U1-VO)*%
X118460000Y-112230000D03*
%TO.P,RV2,2,2_2*%
%TO.N,Net-(C18-Pad1)*%
X121000000Y-109690000D03*
%TO.P,RV2,3,3_3*%
%TO.N,Net-(R18-Pad1)*%
X123540000Y-112230000D03*
%TD*%
D12*
%TO.P,H102,1,1_1*%
%TO.N,GND*%
X182500000Y-128867161D03*
X183202944Y-127170105D03*
X183202944Y-130564217D03*
X184900000Y-126467161D03*
D13*
X184900000Y-128867161D03*
D12*
X184900000Y-131267161D03*
X186597056Y-127170105D03*
X186597056Y-130564217D03*
X187300000Y-128867161D03*
%TD*%
D26*
%TO.P,C25,1*%
%TO.N,Net-(Q3-S)*%
X155000000Y-125500000D03*
D23*
%TO.P,C25,2*%
%TO.N,GND*%
X155000000Y-130500000D03*
%TD*%
D16*
%TO.P,L1,1,1_1*%
%TO.N,Net-(T3-SC)*%
X150000000Y-42500000D03*
%TO.P,L1,2,2_2*%
%TO.N,Net-(C1-Pad1)*%
X150000000Y-47580000D03*
%TD*%
D21*
%TO.P,H105,1,1_1*%
%TO.N,GND*%
X160000000Y-55000000D03*
D22*
X160000000Y-55000000D03*
%TD*%
D14*
%TO.P,J2,1,In_1*%
%TO.N,Net-(J2-In)*%
X181000000Y-100000000D03*
D15*
%TO.P,J2,2,Ext_2*%
%TO.N,GND*%
X183540000Y-102540000D03*
X183540000Y-97460000D03*
X178460000Y-102540000D03*
X178460000Y-97460000D03*
%TD*%
D21*
%TO.P,H108,1,1_1*%
%TO.N,GND*%
X175000000Y-115000000D03*
D22*
X175000000Y-115000000D03*
%TD*%
D21*
%TO.P,H106,1,1_1*%
%TO.N,GND*%
X175000000Y-55000000D03*
D22*
X175000000Y-55000000D03*
%TD*%
D25*
%TO.P,RV1,1,1_1*%
%TO.N,Net-(U1-VO)*%
X118460000Y-98230000D03*
%TO.P,RV1,2,2_2*%
%TO.N,Net-(C5-Pad1)*%
X121000000Y-95690000D03*
%TO.P,RV1,3,3_3*%
%TO.N,Net-(R14-Pad1)*%
X123540000Y-98230000D03*
%TD*%
D16*
%TO.P,L2,1,1_1*%
%TO.N,Net-(C1-Pad1)*%
X160000000Y-42420000D03*
%TO.P,L2,2,2_2*%
%TO.N,+12V*%
X160000000Y-47500000D03*
%TD*%
D27*
%TO.P,J1,1,Pin_1_1*%
%TO.N,Net-(J1-Pin_1)*%
X123996633Y-124519525D03*
D28*
%TO.P,J1,2,Pin_2_2*%
%TO.N,GND*%
X123996633Y-121979525D03*
%TO.P,J1,3,Pin_3_3*%
X123996633Y-119439525D03*
%TD*%
D29*
%TO.P,T2,1,1_1*%
%TO.N,Net-(T3-SC)*%
X145988000Y-84963984D03*
D30*
%TO.P,T2,2,2_2*%
%TO.N,Net-(Q1-D)*%
X145988000Y-79963984D03*
%TO.P,T2,3,3_3*%
%TO.N,Net-(Q2-D)*%
X145988000Y-89963984D03*
%TD*%
D10*
%TO.P,Q2,1,G_1*%
%TO.N,Net-(D2-A1)*%
X153603274Y-103570619D03*
D11*
%TO.P,Q2,2,S_2*%
%TO.N,GND*%
X153603274Y-106110619D03*
%TO.P,Q2,3,D_3*%
%TO.N,Net-(Q2-D)*%
X153603274Y-108650619D03*
%TD*%
D31*
%TO.N,GND*%
X158000000Y-90500000D03*
X144750000Y-99500000D03*
X122500000Y-89750000D03*
X163000000Y-90500000D03*
X123750000Y-52500000D03*
X182000000Y-72000000D03*
X114500000Y-108250000D03*
X157500000Y-50000000D03*
X128000000Y-57500000D03*
X142500000Y-50000000D03*
X114500000Y-113250000D03*
X177000000Y-111500000D03*
X177000000Y-74500000D03*
X149500000Y-109000000D03*
X139500000Y-133000000D03*
X143750000Y-114500000D03*
X172250000Y-38500000D03*
X159500000Y-133000000D03*
X112000000Y-94500000D03*
X112000000Y-114500000D03*
X162000000Y-133000000D03*
X114500000Y-105750000D03*
X165500000Y-96750000D03*
X179500000Y-70750000D03*
X147250000Y-38500000D03*
X133000000Y-79500000D03*
X165500000Y-106750000D03*
X169750000Y-38500000D03*
X165500000Y-74250000D03*
X158000000Y-60500000D03*
X165500000Y-109250000D03*
X158000000Y-73000000D03*
X170500000Y-99250000D03*
X141000000Y-97000000D03*
X127500000Y-50000000D03*
X148750000Y-52500000D03*
X120000000Y-76000000D03*
X177000000Y-72000000D03*
X142000000Y-133000000D03*
X112000000Y-112000000D03*
X183500000Y-36000000D03*
X146000000Y-97000000D03*
X182000000Y-74500000D03*
X160500000Y-64250000D03*
X186000000Y-36000000D03*
X138000000Y-123800000D03*
X137000000Y-133000000D03*
X149500000Y-133000000D03*
X152250000Y-99500000D03*
X128750000Y-52500000D03*
X131250000Y-52500000D03*
X121250000Y-52500000D03*
X158000000Y-78000000D03*
X132500000Y-112000000D03*
X177000000Y-62000000D03*
X160500000Y-71750000D03*
X147500000Y-117000000D03*
X139250000Y-126300000D03*
X112250000Y-38500000D03*
X167000000Y-133000000D03*
X163000000Y-63000000D03*
X145000000Y-117000000D03*
X158000000Y-63000000D03*
X163000000Y-98000000D03*
X150750000Y-106500000D03*
X146250000Y-114500000D03*
X135000000Y-117000000D03*
X153750000Y-114500000D03*
X158000000Y-80500000D03*
X160500000Y-69250000D03*
X133750000Y-114500000D03*
X165500000Y-99250000D03*
X150000000Y-117000000D03*
X165500000Y-71750000D03*
X180000000Y-50000000D03*
X112000000Y-92000000D03*
X138750000Y-114500000D03*
X133000000Y-87000000D03*
X175000000Y-50000000D03*
X138000000Y-128800000D03*
X165500000Y-79250000D03*
X170500000Y-91750000D03*
X181250000Y-52500000D03*
X121000000Y-36000000D03*
X147000000Y-133000000D03*
X179500000Y-75750000D03*
X154750000Y-38500000D03*
X131000000Y-36000000D03*
X125000000Y-91000000D03*
X143750000Y-52500000D03*
X159750000Y-38500000D03*
X125000000Y-50000000D03*
X179500000Y-133000000D03*
X114500000Y-93250000D03*
X133000000Y-74500000D03*
X154500000Y-133000000D03*
X160500000Y-74250000D03*
X114000000Y-87000000D03*
X150000000Y-50000000D03*
X152500000Y-112000000D03*
X170500000Y-96750000D03*
X168000000Y-98000000D03*
X126250000Y-126300000D03*
X152500000Y-117000000D03*
X125000000Y-86000000D03*
X173500000Y-36000000D03*
X153750000Y-52500000D03*
X179750000Y-38500000D03*
X179500000Y-110250000D03*
X182000000Y-106500000D03*
X149750000Y-99500000D03*
X177000000Y-109000000D03*
X163000000Y-105500000D03*
X142500000Y-112000000D03*
X170500000Y-74250000D03*
X146000000Y-36000000D03*
X145000000Y-50000000D03*
X125000000Y-81000000D03*
X132500000Y-117000000D03*
X141250000Y-114500000D03*
X170500000Y-76750000D03*
X174750000Y-38500000D03*
X137250000Y-38500000D03*
X170500000Y-71750000D03*
X182000000Y-109000000D03*
X135500000Y-73250000D03*
X170500000Y-89250000D03*
X151000000Y-36000000D03*
X166250000Y-52500000D03*
X147500000Y-50000000D03*
X135500000Y-88250000D03*
X160000000Y-50000000D03*
X140000000Y-50000000D03*
X112000000Y-119500000D03*
X158000000Y-75500000D03*
X151250000Y-52500000D03*
X122500000Y-87250000D03*
X169500000Y-133000000D03*
X148500000Y-97000000D03*
X122250000Y-38500000D03*
X128000000Y-65000000D03*
X184500000Y-133000000D03*
X114500000Y-110750000D03*
X170500000Y-116750000D03*
X114500000Y-98250000D03*
X163000000Y-68000000D03*
X170500000Y-79250000D03*
X114500000Y-118250000D03*
X146000000Y-75000000D03*
X155000000Y-50000000D03*
X112000000Y-99500000D03*
X168000000Y-115500000D03*
X120000000Y-50000000D03*
X163000000Y-103000000D03*
X168000000Y-75500000D03*
X117000000Y-133000000D03*
X170000000Y-50000000D03*
X130000000Y-123800000D03*
X114500000Y-123250000D03*
X158000000Y-58000000D03*
X168000000Y-118000000D03*
X114000000Y-84500000D03*
X111000000Y-36000000D03*
X182000000Y-69500000D03*
X114500000Y-115750000D03*
X135500000Y-83250000D03*
X168000000Y-93000000D03*
X122500000Y-82250000D03*
X178500000Y-36000000D03*
X112000000Y-117000000D03*
X125000000Y-83500000D03*
X177000000Y-67000000D03*
X163000000Y-108000000D03*
X130000000Y-50000000D03*
X168000000Y-80500000D03*
X163000000Y-60500000D03*
X160500000Y-59250000D03*
X128000000Y-62500000D03*
X120000000Y-91000000D03*
X156250000Y-52500000D03*
X155000000Y-117000000D03*
X125000000Y-78500000D03*
X161000000Y-36000000D03*
X168000000Y-95500000D03*
X112000000Y-102000000D03*
X114500000Y-95750000D03*
X151000000Y-97000000D03*
X163500000Y-36000000D03*
X160500000Y-91750000D03*
X120000000Y-78500000D03*
X179500000Y-65750000D03*
X162250000Y-38500000D03*
X146000000Y-67500000D03*
X160500000Y-61750000D03*
X163000000Y-70500000D03*
X112000000Y-122000000D03*
X123500000Y-36000000D03*
X143500000Y-36000000D03*
X156000000Y-36000000D03*
X179500000Y-107750000D03*
X135500000Y-78250000D03*
X177000000Y-106500000D03*
X168750000Y-52500000D03*
X160500000Y-89250000D03*
X187000000Y-133000000D03*
X152250000Y-38500000D03*
X146000000Y-72500000D03*
X111500000Y-83250000D03*
X127500000Y-123800000D03*
X177000000Y-64500000D03*
X133000000Y-77000000D03*
X130000000Y-112000000D03*
X148250000Y-106500000D03*
X182000000Y-114000000D03*
X177000000Y-77000000D03*
X139750000Y-38500000D03*
X137500000Y-117000000D03*
X188500000Y-36000000D03*
X138500000Y-36000000D03*
X177000000Y-69500000D03*
X140000000Y-117000000D03*
X128750000Y-126300000D03*
X120000000Y-81000000D03*
X135000000Y-112000000D03*
X152500000Y-50000000D03*
X128000000Y-60000000D03*
X136000000Y-36000000D03*
X135500000Y-80750000D03*
X181000000Y-36000000D03*
X165500000Y-94250000D03*
X134500000Y-133000000D03*
X167250000Y-38500000D03*
X163000000Y-65500000D03*
X171250000Y-52500000D03*
X182000000Y-133000000D03*
X122500000Y-77250000D03*
X160500000Y-76750000D03*
X163000000Y-113000000D03*
X150000000Y-112000000D03*
X133000000Y-84500000D03*
X168000000Y-90500000D03*
X111500000Y-85750000D03*
X131250000Y-114500000D03*
X136250000Y-114500000D03*
X176000000Y-36000000D03*
X165500000Y-89250000D03*
X157000000Y-133000000D03*
X157250000Y-38500000D03*
X163000000Y-73000000D03*
X156250000Y-114500000D03*
X163000000Y-93000000D03*
X160500000Y-66750000D03*
X132000000Y-133000000D03*
X163000000Y-78000000D03*
X135500000Y-90750000D03*
X122000000Y-133000000D03*
X164750000Y-38500000D03*
X179500000Y-63250000D03*
X120000000Y-83500000D03*
X127500000Y-128800000D03*
X165500000Y-76750000D03*
X168000000Y-73000000D03*
X182000000Y-67000000D03*
X127000000Y-133000000D03*
X133000000Y-72000000D03*
X163000000Y-75500000D03*
X171000000Y-36000000D03*
X146250000Y-52500000D03*
X148500000Y-36000000D03*
X163750000Y-52500000D03*
X179500000Y-73250000D03*
X151250000Y-114500000D03*
X122500000Y-50000000D03*
X168000000Y-78000000D03*
X158000000Y-68000000D03*
X141000000Y-92000000D03*
X112000000Y-107000000D03*
X142500000Y-117000000D03*
X165500000Y-101750000D03*
X127250000Y-38500000D03*
X130000000Y-128800000D03*
X144500000Y-133000000D03*
X182000000Y-111500000D03*
X166000000Y-36000000D03*
X170500000Y-119250000D03*
X112000000Y-97000000D03*
X177250000Y-38500000D03*
X146000000Y-70000000D03*
X174500000Y-133000000D03*
X182000000Y-64500000D03*
X179500000Y-112750000D03*
X170500000Y-94250000D03*
X118500000Y-36000000D03*
X122500000Y-84750000D03*
X138750000Y-52500000D03*
X147250000Y-99500000D03*
X177000000Y-133000000D03*
X125000000Y-88500000D03*
X113500000Y-36000000D03*
X122500000Y-79750000D03*
X141000000Y-36000000D03*
X168500000Y-36000000D03*
X158000000Y-65500000D03*
X162500000Y-50000000D03*
X147500000Y-112000000D03*
X158000000Y-70500000D03*
X142250000Y-99500000D03*
X116000000Y-36000000D03*
X124750000Y-38500000D03*
X133500000Y-36000000D03*
X165500000Y-111750000D03*
X129750000Y-38500000D03*
X148750000Y-114500000D03*
X145000000Y-112000000D03*
X114500000Y-120750000D03*
X124500000Y-133000000D03*
X170500000Y-114250000D03*
X112000000Y-104500000D03*
X126250000Y-52500000D03*
X177000000Y-104000000D03*
X165500000Y-116750000D03*
X114500000Y-100750000D03*
X160500000Y-79250000D03*
X132250000Y-38500000D03*
X129500000Y-133000000D03*
X135500000Y-85750000D03*
X126000000Y-36000000D03*
X142250000Y-38500000D03*
X165500000Y-114250000D03*
X133000000Y-82000000D03*
X132500000Y-50000000D03*
X165500000Y-104250000D03*
X163000000Y-100500000D03*
X122500000Y-92250000D03*
X178750000Y-52500000D03*
X144750000Y-38500000D03*
X120000000Y-86000000D03*
X114500000Y-103250000D03*
X135500000Y-75750000D03*
X128500000Y-36000000D03*
X137500000Y-112000000D03*
X158050989Y-110768365D03*
X119750000Y-38500000D03*
X153500000Y-36000000D03*
X165500000Y-91750000D03*
X143500000Y-97000000D03*
X179500000Y-105250000D03*
X167500000Y-50000000D03*
X163000000Y-80500000D03*
X179500000Y-78250000D03*
X152000000Y-133000000D03*
X119500000Y-133000000D03*
X112000000Y-109500000D03*
X137500000Y-50000000D03*
X112000000Y-124500000D03*
X163000000Y-110500000D03*
X133000000Y-89500000D03*
X165000000Y-50000000D03*
X149750000Y-38500000D03*
X139700000Y-99500000D03*
X112000000Y-133000000D03*
X140000000Y-112000000D03*
X120000000Y-88500000D03*
X141250000Y-52500000D03*
X177500000Y-50000000D03*
X172500000Y-50000000D03*
X163000000Y-95500000D03*
X114500000Y-133000000D03*
X179500000Y-68250000D03*
X168000000Y-113000000D03*
X155000000Y-112000000D03*
X158500000Y-36000000D03*
%TO.N,Net-(T3-SC)*%
X144000000Y-83622492D03*
X144000000Y-86362500D03*
%TO.N,Net-(C5-Pad1)*%
X140000000Y-74000000D03*
%TD*%
%TO.N,Net-(T3-SC)*%
D32*
X149000000Y-77000000D02*
X151000000Y-79000000D01*
D33*
X176488606Y-84917166D02*
X151000000Y-84917166D01*
X146034818Y-84917166D02*
X145988000Y-84963984D01*
D32*
X135000000Y-52000000D02*
X149000000Y-66000000D01*
D33*
X151000000Y-84917166D02*
X146034818Y-84917166D01*
D32*
X149000000Y-66000000D02*
X149000000Y-77000000D01*
X135000000Y-47500000D02*
X135000000Y-52000000D01*
X151000000Y-79000000D02*
X151000000Y-84917166D01*
%TO.N,+12V*%
X187000000Y-118000000D02*
X187000000Y-53000000D01*
X181000000Y-47000000D02*
X173600000Y-47000000D01*
X180009258Y-124990742D02*
X187000000Y-118000000D01*
X173600000Y-47000000D02*
X170000000Y-43400000D01*
X170000000Y-43400000D02*
X170000000Y-41500000D01*
X172483142Y-124990742D02*
X180009258Y-124990742D01*
X187000000Y-53000000D02*
X181000000Y-47000000D01*
%TO.N,Net-(C5-Pad1)*%
D34*
X138000000Y-76000000D02*
X140000000Y-74000000D01*
X121000000Y-95690000D02*
X133310000Y-95690000D01*
X138000000Y-91000000D02*
X138000000Y-76000000D01*
X133310000Y-95690000D02*
X138000000Y-91000000D01*
%TD*%
%TA.AperFunction,Conductor*%
%TO.N,GND*%
G36*
X189442539Y-35520185D02*
G01*
X189488294Y-35572989D01*
X189499500Y-35624500D01*
X189499500Y-134375500D01*
X189479815Y-134442539D01*
X189427011Y-134488294D01*
X189375500Y-134499500D01*
X110624500Y-134499500D01*
X110557461Y-134479815D01*
X110511706Y-134427011D01*
X110500500Y-134375500D01*
X110500500Y-129874038D01*
X163399500Y-129874038D01*
X163399500Y-130125961D01*
X163438910Y-130374785D01*
X163516760Y-130614383D01*
X163631132Y-130838848D01*
X163779201Y-131042649D01*
X163779205Y-131042654D01*
X163957345Y-131220794D01*
X163957350Y-131220798D01*
X164054719Y-131291540D01*
X164161155Y-131368870D01*
X164299988Y-131439609D01*
X164385616Y-131483239D01*
X164385618Y-131483239D01*
X164385621Y-131483241D01*
X164625215Y-131561090D01*
X164874038Y-131600500D01*
X164874039Y-131600500D01*
X165125961Y-131600500D01*
X165125962Y-131600500D01*
X165374785Y-131561090D01*
X165614379Y-131483241D01*
X165838845Y-131368870D01*
X166042656Y-131220793D01*
X166220793Y-131042656D01*
X166368870Y-130838845D01*
X166483241Y-130614379D01*
X166561090Y-130374785D01*
X166600500Y-130125962D01*
X166600500Y-129944780D01*
X170882642Y-129944780D01*
X170882642Y-130196704D01*
X170922052Y-130445527D01*
X170999902Y-130685125D01*
X171114274Y-130909590D01*
X171262343Y-131113391D01*
X171262347Y-131113396D01*
X171440487Y-131291536D01*
X171440492Y-131291540D01*
X171618259Y-131420694D01*
X171644297Y-131439612D01*
X171787326Y-131512489D01*
X171868758Y-131553981D01*
X171868760Y-131553981D01*
X171868763Y-131553983D01*
X172108357Y-131631832D01*
X172357180Y-131671242D01*
X172357181Y-131671242D01*
X172609103Y-131671242D01*
X172609104Y-131671242D01*
X172857927Y-131631832D01*
X173097521Y-131553983D01*
X173321987Y-131439612D01*
X173525798Y-131291535D01*
X173703935Y-131113398D01*
X173852012Y-130909587D01*
X173966383Y-130685121D01*
X174044232Y-130445527D01*
X174083642Y-130196704D01*
X174083642Y-129944780D01*
X174044232Y-129695957D01*
X173966383Y-129456363D01*
X173966381Y-129456360D01*
X173966381Y-129456358D01*
X173924889Y-129374926D01*
X173852012Y-129231897D01*
X173800612Y-129161151D01*
X173703940Y-129028092D01*
X173703936Y-129028087D01*
X173525796Y-128849947D01*
X173525791Y-128849943D01*
X173321990Y-128701874D01*
X173321989Y-128701873D01*
X173321987Y-128701872D01*
X173251889Y-128666155D01*
X173097525Y-128587502D01*
X172857927Y-128509652D01*
X172609104Y-128470242D01*
X172357180Y-128470242D01*
X172232768Y-128489947D01*
X172108356Y-128509652D01*
X171868758Y-128587502D01*
X171644293Y-128701874D01*
X171440492Y-128849943D01*
X171440487Y-128849947D01*
X171262347Y-129028087D01*
X171262343Y-129028092D01*
X171114274Y-129231893D01*
X170999902Y-129456358D01*
X170922052Y-129695956D01*
X170882642Y-129944780D01*
X166600500Y-129944780D01*
X166600500Y-129874038D01*
X166561090Y-129625215D01*
X166483241Y-129385621D01*
X166483239Y-129385618D01*
X166483239Y-129385616D01*
X166441747Y-129304184D01*
X166368870Y-129161155D01*
X166349952Y-129135117D01*
X166220798Y-128957350D01*
X166220794Y-128957345D01*
X166042654Y-128779205D01*
X166042649Y-128779201D01*
X165838848Y-128631132D01*
X165838847Y-128631131D01*
X165838845Y-128631130D01*
X165753218Y-128587501D01*
X165614383Y-128516760D01*
X165374785Y-128438910D01*
X165125962Y-128399500D01*
X164874038Y-128399500D01*
X164749626Y-128419205D01*
X164625214Y-128438910D01*
X164385616Y-128516760D01*
X164161151Y-128631132D01*
X163957350Y-128779201D01*
X163957345Y-128779205D01*
X163779205Y-128957345D01*
X163779201Y-128957350D01*
X163631132Y-129161151D01*
X163516760Y-129385616D01*
X163438910Y-129625214D01*
X163399500Y-129874038D01*
X110500500Y-129874038D01*
X110500500Y-123849508D01*
X122401133Y-123849508D01*
X122401133Y-125189526D01*
X122401134Y-125189543D01*
X122411633Y-125292321D01*
X122411634Y-125292324D01*
X122412450Y-125294785D01*
X122466819Y-125458859D01*
X122558921Y-125608181D01*
X122682977Y-125732237D01*
X122832299Y-125824339D01*
X122998836Y-125879524D01*
X123101624Y-125890025D01*
X124891641Y-125890024D01*
X124994430Y-125879524D01*
X125160967Y-125824339D01*
X125310289Y-125732237D01*
X125434345Y-125608181D01*
X125526447Y-125458859D01*
X125581632Y-125292322D01*
X125592133Y-125189534D01*
X125592132Y-124699983D01*
X153499500Y-124699983D01*
X153499500Y-126300001D01*
X153499501Y-126300018D01*
X153510000Y-126402796D01*
X153510001Y-126402799D01*
X153549004Y-126520500D01*
X153565186Y-126569334D01*
X153657288Y-126718656D01*
X153781344Y-126842712D01*
X153930666Y-126934814D01*
X154097203Y-126989999D01*
X154199991Y-127000500D01*
X155800008Y-127000499D01*
X155902797Y-126989999D01*
X156069334Y-126934814D01*
X156218656Y-126842712D01*
X156342712Y-126718656D01*
X156434814Y-126569334D01*
X156489999Y-126402797D01*
X156500500Y-126300009D01*
X156500499Y-124794038D01*
X163399500Y-124794038D01*
X163399500Y-125045962D01*
X163422239Y-125189528D01*
X163438910Y-125294785D01*
X163516760Y-125534383D01*
X163631132Y-125758848D01*
X163779201Y-125962649D01*
X163779205Y-125962654D01*
X163957345Y-126140794D01*
X163957350Y-126140798D01*
X164135117Y-126269952D01*
X164161155Y-126288870D01*
X164304184Y-126361747D01*
X164385616Y-126403239D01*
X164385618Y-126403239D01*
X164385621Y-126403241D01*
X164625215Y-126481090D01*
X164874038Y-126520500D01*
X164874039Y-126520500D01*
X165125961Y-126520500D01*
X165125962Y-126520500D01*
X165374785Y-126481090D01*
X165614379Y-126403241D01*
X165615247Y-126402799D01*
X165620048Y-126400352D01*
X165838845Y-126288870D01*
X166042656Y-126140793D01*
X166220793Y-125962656D01*
X166368870Y-125758845D01*
X166483241Y-125534379D01*
X166561090Y-125294785D01*
X166600500Y-125045962D01*
X166600500Y-124794038D01*
X166561090Y-124545215D01*
X166483241Y-124305621D01*
X166483239Y-124305618D01*
X166483239Y-124305616D01*
X166407662Y-124157289D01*
X166368870Y-124081155D01*
X166309545Y-123999501D01*
X166220798Y-123877350D01*
X166220794Y-123877345D01*
X166042654Y-123699205D01*
X166042649Y-123699201D01*
X165838848Y-123551132D01*
X165838847Y-123551131D01*
X165838845Y-123551130D01*
X165768747Y-123515413D01*
X165614383Y-123436760D01*
X165374785Y-123358910D01*
X165125962Y-123319500D01*
X164874038Y-123319500D01*
X164749626Y-123339205D01*
X164625214Y-123358910D01*
X164385616Y-123436760D01*
X164161151Y-123551132D01*
X163957350Y-123699201D01*
X163957345Y-123699205D01*
X163779205Y-123877345D01*
X163779201Y-123877350D01*
X163631132Y-124081151D01*
X163516760Y-124305616D01*
X163438910Y-124545214D01*
X163414395Y-124699998D01*
X163399500Y-124794038D01*
X156500499Y-124794038D01*
X156500499Y-124699992D01*
X156500176Y-124696834D01*
X156489999Y-124597203D01*
X156489998Y-124597200D01*
X156472772Y-124545215D01*
X156434814Y-124430666D01*
X156342712Y-124281344D01*
X156218656Y-124157288D01*
X156069334Y-124065186D01*
X155902797Y-124010001D01*
X155902795Y-124010000D01*
X155800010Y-123999500D01*
X154199998Y-123999500D01*
X154199981Y-123999501D01*
X154097203Y-124010000D01*
X154097200Y-124010001D01*
X153930668Y-124065185D01*
X153930663Y-124065187D01*
X153781342Y-124157289D01*
X153657289Y-124281342D01*
X153565187Y-124430663D01*
X153565186Y-124430666D01*
X153510001Y-124597203D01*
X153510001Y-124597204D01*
X153510000Y-124597204D01*
X153499500Y-124699983D01*
X125592132Y-124699983D01*
X125592132Y-124430668D01*
X125592132Y-123849523D01*
X125592131Y-123849506D01*
X125581632Y-123746728D01*
X125581631Y-123746725D01*
X125565883Y-123699201D01*
X125526447Y-123580191D01*
X125434345Y-123430869D01*
X125310289Y-123306813D01*
X125160967Y-123214711D01*
X124994430Y-123159526D01*
X124994428Y-123159525D01*
X124891643Y-123149025D01*
X123101631Y-123149025D01*
X123101614Y-123149026D01*
X122998836Y-123159525D01*
X122998833Y-123159526D01*
X122832301Y-123214710D01*
X122832296Y-123214712D01*
X122682975Y-123306814D01*
X122558922Y-123430867D01*
X122466820Y-123580188D01*
X122466819Y-123580191D01*
X122411634Y-123746728D01*
X122411634Y-123746729D01*
X122411633Y-123746729D01*
X122401133Y-123849508D01*
X110500500Y-123849508D01*
X110500500Y-112133945D01*
X117239500Y-112133945D01*
X117239500Y-112326054D01*
X117269553Y-112515802D01*
X117328916Y-112698506D01*
X117328918Y-112698509D01*
X117416135Y-112869681D01*
X117529055Y-113025102D01*
X117664898Y-113160945D01*
X117820319Y-113273865D01*
X117991491Y-113361082D01*
X117991493Y-113361083D01*
X118082845Y-113390764D01*
X118174199Y-113420447D01*
X118363945Y-113450500D01*
X118363946Y-113450500D01*
X118556054Y-113450500D01*
X118556055Y-113450500D01*
X118745801Y-113420447D01*
X118928509Y-113361082D01*
X119099681Y-113273865D01*
X119255102Y-113160945D01*
X119390945Y-113025102D01*
X119503865Y-112869681D01*
X119591082Y-112698509D01*
X119650447Y-112515801D01*
X119680500Y-112326055D01*
X119680500Y-112133945D01*
X122319500Y-112133945D01*
X122319500Y-112326054D01*
X122349553Y-112515802D01*
X122408916Y-112698506D01*
X122408918Y-112698509D01*
X122496135Y-112869681D01*
X122609055Y-113025102D01*
X122744898Y-113160945D01*
X122900319Y-113273865D01*
X123071491Y-113361082D01*
X123071493Y-113361083D01*
X123162845Y-113390764D01*
X123254199Y-113420447D01*
X123443945Y-113450500D01*
X123443946Y-113450500D01*
X123636054Y-113450500D01*
X123636055Y-113450500D01*
X123825801Y-113420447D01*
X124008509Y-113361082D01*
X124179681Y-113273865D01*
X124335102Y-113160945D01*
X124470945Y-113025102D01*
X124583865Y-112869681D01*
X124671082Y-112698509D01*
X124730447Y-112515801D01*
X124760500Y-112326055D01*
X124760500Y-112133945D01*
X124730447Y-111944199D01*
X124671082Y-111761491D01*
X124583865Y-111590319D01*
X124470945Y-111434898D01*
X124335102Y-111299055D01*
X124179681Y-111186135D01*
X124008506Y-111098916D01*
X123825802Y-111039553D01*
X123730928Y-111024526D01*
X123636055Y-111009500D01*
X123443945Y-111009500D01*
X123380696Y-111019517D01*
X123254197Y-111039553D01*
X123071493Y-111098916D01*
X122900318Y-111186135D01*
X122811645Y-111250560D01*
X122744898Y-111299055D01*
X122744896Y-111299057D01*
X122744895Y-111299057D01*
X122609057Y-111434895D01*
X122609057Y-111434896D01*
X122609055Y-111434898D01*
X122561393Y-111500499D01*
X122496135Y-111590318D01*
X122408916Y-111761493D01*
X122349553Y-111944197D01*
X122319500Y-112133945D01*
X119680500Y-112133945D01*
X119650447Y-111944199D01*
X119591082Y-111761491D01*
X119503865Y-111590319D01*
X119390945Y-111434898D01*
X119255102Y-111299055D01*
X119099681Y-111186135D01*
X118928506Y-111098916D01*
X118745802Y-111039553D01*
X118650928Y-111024526D01*
X118556055Y-111009500D01*
X118363945Y-111009500D01*
X118300696Y-111019517D01*
X118174197Y-111039553D01*
X117991493Y-111098916D01*
X117820318Y-111186135D01*
X117731645Y-111250560D01*
X117664898Y-111299055D01*
X117664896Y-111299057D01*
X117664895Y-111299057D01*
X117529057Y-111434895D01*
X117529057Y-111434896D01*
X117529055Y-111434898D01*
X117481393Y-111500499D01*
X117416135Y-111590318D01*
X117328916Y-111761493D01*
X117269553Y-111944197D01*
X117239500Y-112133945D01*
X110500500Y-112133945D01*
X110500500Y-109593945D01*
X119779500Y-109593945D01*
X119779500Y-109786054D01*
X119809553Y-109975802D01*
X119868916Y-110158506D01*
X119868918Y-110158509D01*
X119956135Y-110329681D01*
X120069055Y-110485102D01*
X120204898Y-110620945D01*
X120360319Y-110733865D01*
X120531491Y-110821082D01*
X120531493Y-110821083D01*
X120622845Y-110850764D01*
X120714199Y-110880447D01*
X120903945Y-110910500D01*
X120903946Y-110910500D01*
X121096054Y-110910500D01*
X121096055Y-110910500D01*
X121285801Y-110880447D01*
X121468509Y-110821082D01*
X121639681Y-110733865D01*
X121795102Y-110620945D01*
X121930945Y-110485102D01*
X122043865Y-110329681D01*
X122131082Y-110158509D01*
X122190447Y-109975801D01*
X122220500Y-109786055D01*
X122220500Y-109593945D01*
X122190447Y-109404199D01*
X122131082Y-109221491D01*
X122043865Y-109050319D01*
X121930945Y-108894898D01*
X121795102Y-108759055D01*
X121639681Y-108646135D01*
X121600518Y-108626180D01*
X121468506Y-108558916D01*
X121398792Y-108536265D01*
X152102774Y-108536265D01*
X152102774Y-108764972D01*
X152138552Y-108990865D01*
X152138552Y-108990868D01*
X152209224Y-109208374D01*
X152309001Y-109404197D01*
X152313057Y-109412157D01*
X152447488Y-109597185D01*
X152609208Y-109758905D01*
X152794236Y-109893336D01*
X152956083Y-109975801D01*
X152998018Y-109997168D01*
X153215525Y-110067840D01*
X153215526Y-110067840D01*
X153215529Y-110067841D01*
X153441420Y-110103619D01*
X153441421Y-110103619D01*
X153765127Y-110103619D01*
X153765128Y-110103619D01*
X153991019Y-110067841D01*
X153991022Y-110067840D01*
X153991023Y-110067840D01*
X154208529Y-109997168D01*
X154208529Y-109997167D01*
X154208532Y-109997167D01*
X154412312Y-109893336D01*
X154597340Y-109758905D01*
X154759060Y-109597185D01*
X154893491Y-109412157D01*
X154997322Y-109208377D01*
X155048678Y-109050319D01*
X155067995Y-108990868D01*
X155067995Y-108990867D01*
X155067996Y-108990864D01*
X155103774Y-108764973D01*
X155103774Y-108536265D01*
X155067996Y-108310374D01*
X155067995Y-108310370D01*
X155067995Y-108310369D01*
X154997323Y-108092863D01*
X154893490Y-107889080D01*
X154759060Y-107704053D01*
X154597340Y-107542333D01*
X154412312Y-107407902D01*
X154208529Y-107304069D01*
X153991022Y-107233397D01*
X153821600Y-107206563D01*
X153765128Y-107197619D01*
X153441420Y-107197619D01*
X153366123Y-107209545D01*
X153215527Y-107233397D01*
X153215524Y-107233397D01*
X152998018Y-107304069D01*
X152794235Y-107407902D01*
X152688670Y-107484599D01*
X152609208Y-107542333D01*
X152609206Y-107542335D01*
X152609205Y-107542335D01*
X152447490Y-107704050D01*
X152447490Y-107704051D01*
X152447488Y-107704053D01*
X152394094Y-107777543D01*
X152313057Y-107889080D01*
X152209224Y-108092863D01*
X152138552Y-108310369D01*
X152138552Y-108310372D01*
X152102774Y-108536265D01*
X121398792Y-108536265D01*
X121285802Y-108499553D01*
X121190928Y-108484526D01*
X121096055Y-108469500D01*
X120903945Y-108469500D01*
X120840696Y-108479517D01*
X120714197Y-108499553D01*
X120531493Y-108558916D01*
X120360318Y-108646135D01*
X120271645Y-108710560D01*
X120204898Y-108759055D01*
X120204896Y-108759057D01*
X120204895Y-108759057D01*
X120069057Y-108894895D01*
X120069057Y-108894896D01*
X120069055Y-108894898D01*
X120020560Y-108961645D01*
X119956135Y-109050318D01*
X119868916Y-109221493D01*
X119809553Y-109404197D01*
X119779500Y-109593945D01*
X110500500Y-109593945D01*
X110500500Y-102570254D01*
X152102774Y-102570254D01*
X152102774Y-104570989D01*
X152102775Y-104570995D01*
X152109182Y-104630602D01*
X152159476Y-104765447D01*
X152159480Y-104765454D01*
X152245726Y-104880663D01*
X152245729Y-104880666D01*
X152360938Y-104966912D01*
X152360945Y-104966916D01*
X152495791Y-105017210D01*
X152495790Y-105017210D01*
X152502718Y-105017954D01*
X152555401Y-105023619D01*
X154651146Y-105023618D01*
X154710757Y-105017210D01*
X154845605Y-104966915D01*
X154960820Y-104880665D01*
X155047070Y-104765450D01*
X155097365Y-104630602D01*
X155103774Y-104570992D01*
X155103773Y-102570247D01*
X155097365Y-102510636D01*
X155047070Y-102375788D01*
X155047069Y-102375787D01*
X155047067Y-102375783D01*
X154960821Y-102260574D01*
X154960818Y-102260571D01*
X154845609Y-102174325D01*
X154845602Y-102174321D01*
X154710756Y-102124027D01*
X154710757Y-102124027D01*
X154651157Y-102117620D01*
X154651155Y-102117619D01*
X154651147Y-102117619D01*
X154651138Y-102117619D01*
X152555403Y-102117619D01*
X152555397Y-102117620D01*
X152495790Y-102124027D01*
X152360945Y-102174321D01*
X152360938Y-102174325D01*
X152245729Y-102260571D01*
X152245726Y-102260574D01*
X152159480Y-102375783D01*
X152159476Y-102375790D01*
X152109182Y-102510636D01*
X152102775Y-102570235D01*
X152102775Y-102570242D01*
X152102774Y-102570254D01*
X110500500Y-102570254D01*
X110500500Y-100934108D01*
X166499500Y-100934108D01*
X166499500Y-111065891D01*
X166533608Y-111193187D01*
X166566554Y-111250250D01*
X166599500Y-111307314D01*
X166692686Y-111400500D01*
X166806814Y-111466392D01*
X166934108Y-111500500D01*
X166934110Y-111500500D01*
X173065890Y-111500500D01*
X173065892Y-111500500D01*
X173193186Y-111466392D01*
X173307314Y-111400500D01*
X173400500Y-111307314D01*
X173466392Y-111193186D01*
X173500500Y-111065892D01*
X173500500Y-100934108D01*
X173466392Y-100806814D01*
X173400500Y-100692686D01*
X173307314Y-100599500D01*
X173250250Y-100566554D01*
X173193187Y-100533608D01*
X173129539Y-100516554D01*
X173065892Y-100499500D01*
X167065892Y-100499500D01*
X166934108Y-100499500D01*
X166806812Y-100533608D01*
X166692686Y-100599500D01*
X166692683Y-100599502D01*
X166599502Y-100692683D01*
X166599500Y-100692686D01*
X166533608Y-100806812D01*
X166499500Y-100934108D01*
X110500500Y-100934108D01*
X110500500Y-99913504D01*
X179900950Y-99913504D01*
X179900950Y-100086495D01*
X179928013Y-100257362D01*
X179928013Y-100257365D01*
X179981469Y-100421886D01*
X180060008Y-100576026D01*
X180161692Y-100715983D01*
X180284016Y-100838307D01*
X180423973Y-100939991D01*
X180578113Y-101018530D01*
X180731571Y-101068390D01*
X180742639Y-101071987D01*
X180913503Y-101099050D01*
X180913504Y-101099050D01*
X181086496Y-101099050D01*
X181086497Y-101099050D01*
X181257361Y-101071987D01*
X181257364Y-101071986D01*
X181257365Y-101071986D01*
X181421886Y-101018530D01*
X181421886Y-101018529D01*
X181421889Y-101018529D01*
X181576027Y-100939991D01*
X181715983Y-100838308D01*
X181838308Y-100715983D01*
X181939991Y-100576027D01*
X182018529Y-100421889D01*
X182071987Y-100257361D01*
X182099050Y-100086497D01*
X182099050Y-99913503D01*
X182071987Y-99742639D01*
X182071986Y-99742635D01*
X182071986Y-99742634D01*
X182018530Y-99578113D01*
X181939991Y-99423973D01*
X181838307Y-99284016D01*
X181715983Y-99161692D01*
X181576026Y-99060008D01*
X181421886Y-98981469D01*
X181257363Y-98928013D01*
X181143451Y-98909971D01*
X181086497Y-98900950D01*
X180913503Y-98900950D01*
X180856548Y-98909971D01*
X180742637Y-98928013D01*
X180742634Y-98928013D01*
X180578113Y-98981469D01*
X180423973Y-99060008D01*
X180284016Y-99161692D01*
X180161692Y-99284016D01*
X180060008Y-99423973D01*
X179981469Y-99578113D01*
X179928013Y-99742634D01*
X179928013Y-99742637D01*
X179900950Y-99913504D01*
X110500500Y-99913504D01*
X110500500Y-98133945D01*
X117239500Y-98133945D01*
X117239500Y-98326054D01*
X117269553Y-98515802D01*
X117328916Y-98698506D01*
X117328918Y-98698509D01*
X117416135Y-98869681D01*
X117529055Y-99025102D01*
X117664898Y-99160945D01*
X117820319Y-99273865D01*
X117991491Y-99361082D01*
X117991493Y-99361083D01*
X118082845Y-99390764D01*
X118174199Y-99420447D01*
X118363945Y-99450500D01*
X118363946Y-99450500D01*
X118556054Y-99450500D01*
X118556055Y-99450500D01*
X118745801Y-99420447D01*
X118928509Y-99361082D01*
X119099681Y-99273865D01*
X119255102Y-99160945D01*
X119390945Y-99025102D01*
X119503865Y-98869681D01*
X119591082Y-98698509D01*
X119650447Y-98515801D01*
X119680500Y-98326055D01*
X119680500Y-98133945D01*
X119650447Y-97944199D01*
X119591082Y-97761491D01*
X119503865Y-97590319D01*
X119390945Y-97434898D01*
X119255102Y-97299055D01*
X119099681Y-97186135D01*
X119047384Y-97159488D01*
X118928506Y-97098916D01*
X118745802Y-97039553D01*
X118650928Y-97024526D01*
X118556055Y-97009500D01*
X118363945Y-97009500D01*
X118300696Y-97019517D01*
X118174197Y-97039553D01*
X117991493Y-97098916D01*
X117820318Y-97186135D01*
X117780840Y-97214818D01*
X117664898Y-97299055D01*
X117664896Y-97299057D01*
X117664895Y-97299057D01*
X117529057Y-97434895D01*
X117529057Y-97434896D01*
X117529055Y-97434898D01*
X117480560Y-97501645D01*
X117416135Y-97590318D01*
X117328916Y-97761493D01*
X117269553Y-97944197D01*
X117239500Y-98133945D01*
X110500500Y-98133945D01*
X110500500Y-95587648D01*
X119699500Y-95587648D01*
X119699500Y-95792351D01*
X119731522Y-95994534D01*
X119794781Y-96189223D01*
X119887715Y-96371613D01*
X120008028Y-96537213D01*
X120152786Y-96681971D01*
X120307749Y-96794556D01*
X120318390Y-96802287D01*
X120434607Y-96861503D01*
X120500776Y-96895218D01*
X120500778Y-96895218D01*
X120500781Y-96895220D01*
X120598116Y-96926846D01*
X120695465Y-96958477D01*
X120796557Y-96974488D01*
X120897648Y-96990500D01*
X120897649Y-96990500D01*
X122787955Y-96990500D01*
X122854994Y-97010185D01*
X122900749Y-97062989D01*
X122910693Y-97132147D01*
X122881668Y-97195703D01*
X122860840Y-97214818D01*
X122744901Y-97299052D01*
X122744895Y-97299057D01*
X122609057Y-97434895D01*
X122609057Y-97434896D01*
X122609055Y-97434898D01*
X122560560Y-97501645D01*
X122496135Y-97590318D01*
X122408916Y-97761493D01*
X122349553Y-97944197D01*
X122319500Y-98133945D01*
X122319500Y-98326054D01*
X122349553Y-98515802D01*
X122408916Y-98698506D01*
X122408918Y-98698509D01*
X122496135Y-98869681D01*
X122609055Y-99025102D01*
X122744898Y-99160945D01*
X122900319Y-99273865D01*
X123071491Y-99361082D01*
X123071493Y-99361083D01*
X123162845Y-99390764D01*
X123254199Y-99420447D01*
X123443945Y-99450500D01*
X123443946Y-99450500D01*
X123636054Y-99450500D01*
X123636055Y-99450500D01*
X123825801Y-99420447D01*
X124008509Y-99361082D01*
X124179681Y-99273865D01*
X124335102Y-99160945D01*
X124470945Y-99025102D01*
X124583865Y-98869681D01*
X124671082Y-98698509D01*
X124730447Y-98515801D01*
X124760500Y-98326055D01*
X124760500Y-98133945D01*
X124730447Y-97944199D01*
X124671082Y-97761491D01*
X124583865Y-97590319D01*
X124470945Y-97434898D01*
X124335102Y-97299055D01*
X124219160Y-97214818D01*
X124176494Y-97159488D01*
X124170515Y-97089875D01*
X124203121Y-97028080D01*
X124263960Y-96993722D01*
X124292045Y-96990500D01*
X133412351Y-96990500D01*
X133412352Y-96990500D01*
X133614535Y-96958477D01*
X133711876Y-96926848D01*
X133809219Y-96895220D01*
X133954723Y-96821082D01*
X133991611Y-96802287D01*
X134157219Y-96681966D01*
X138840150Y-91999032D01*
X138840157Y-91999027D01*
X138847217Y-91991967D01*
X138847219Y-91991966D01*
X138991966Y-91847219D01*
X138991968Y-91847215D01*
X138991971Y-91847213D01*
X139112286Y-91681611D01*
X139112287Y-91681610D01*
X139203014Y-91503548D01*
X139204919Y-91500145D01*
X139205220Y-91499219D01*
X139205221Y-91499218D01*
X139268477Y-91304534D01*
X139287617Y-91183693D01*
X139290193Y-91167424D01*
X139300500Y-91102356D01*
X139300500Y-76590047D01*
X139320185Y-76523008D01*
X139336819Y-76502366D01*
X140143720Y-75695465D01*
X140991966Y-74847219D01*
X141112287Y-74681611D01*
X141205220Y-74499218D01*
X141268477Y-74304535D01*
X141300500Y-74102352D01*
X141300500Y-73897649D01*
X141268477Y-73695465D01*
X141205220Y-73500782D01*
X141112287Y-73318389D01*
X140991966Y-73152782D01*
X140847218Y-73008034D01*
X140681611Y-72887713D01*
X140499218Y-72794780D01*
X140304535Y-72731523D01*
X140304533Y-72731522D01*
X140304532Y-72731522D01*
X140149219Y-72706923D01*
X140102351Y-72699500D01*
X139897648Y-72699500D01*
X139850779Y-72706923D01*
X139695468Y-72731522D01*
X139500779Y-72794781D01*
X139318387Y-72887714D01*
X139318384Y-72887716D01*
X139152778Y-73008036D01*
X137008036Y-75152778D01*
X136887716Y-75318384D01*
X136887714Y-75318387D01*
X136859002Y-75374739D01*
X136794781Y-75500776D01*
X136731522Y-75695465D01*
X136699500Y-75897648D01*
X136699500Y-90409953D01*
X136679815Y-90476992D01*
X136663181Y-90497634D01*
X132807634Y-94353181D01*
X132746311Y-94386666D01*
X132719953Y-94389500D01*
X120897648Y-94389500D01*
X120873329Y-94393351D01*
X120695465Y-94421522D01*
X120500776Y-94484781D01*
X120318386Y-94577715D01*
X120152786Y-94698028D01*
X120008028Y-94842786D01*
X119887715Y-95008386D01*
X119794781Y-95190776D01*
X119731522Y-95385465D01*
X119699500Y-95587648D01*
X110500500Y-95587648D01*
X110500500Y-60913504D01*
X113900950Y-60913504D01*
X113900950Y-61086495D01*
X113928013Y-61257362D01*
X113928013Y-61257365D01*
X113981469Y-61421886D01*
X114060008Y-61576026D01*
X114161692Y-61715983D01*
X114284016Y-61838307D01*
X114423973Y-61939991D01*
X114578113Y-62018530D01*
X114731571Y-62068390D01*
X114742639Y-62071987D01*
X114913503Y-62099050D01*
X114913504Y-62099050D01*
X115086496Y-62099050D01*
X115086497Y-62099050D01*
X115257361Y-62071987D01*
X115257364Y-62071986D01*
X115257365Y-62071986D01*
X115421886Y-62018530D01*
X115421886Y-62018529D01*
X115421889Y-62018529D01*
X115576027Y-61939991D01*
X115715983Y-61838308D01*
X115838308Y-61715983D01*
X115939991Y-61576027D01*
X116018529Y-61421889D01*
X116025636Y-61400016D01*
X116071986Y-61257365D01*
X116071986Y-61257364D01*
X116071987Y-61257361D01*
X116099050Y-61086497D01*
X116099050Y-60913503D01*
X116071987Y-60742639D01*
X116071986Y-60742635D01*
X116071986Y-60742634D01*
X116018530Y-60578113D01*
X115939991Y-60423973D01*
X115838307Y-60284016D01*
X115715983Y-60161692D01*
X115576026Y-60060008D01*
X115421886Y-59981469D01*
X115257363Y-59928013D01*
X115143451Y-59909971D01*
X115086497Y-59900950D01*
X114913503Y-59900950D01*
X114856548Y-59909971D01*
X114742637Y-59928013D01*
X114742634Y-59928013D01*
X114578113Y-59981469D01*
X114423973Y-60060008D01*
X114284016Y-60161692D01*
X114161692Y-60284016D01*
X114060008Y-60423973D01*
X113981469Y-60578113D01*
X113928013Y-60742634D01*
X113928013Y-60742637D01*
X113900950Y-60913504D01*
X110500500Y-60913504D01*
X110500500Y-47372149D01*
X133049500Y-47372149D01*
X133049500Y-52127850D01*
X133075457Y-52325007D01*
X133082874Y-52381340D01*
X133146464Y-52618661D01*
X133149050Y-52628312D01*
X133149053Y-52628322D01*
X133246894Y-52864531D01*
X133246899Y-52864542D01*
X133374734Y-53085957D01*
X133374745Y-53085973D01*
X133530388Y-53288811D01*
X133530394Y-53288818D01*
X147013181Y-66771604D01*
X147046666Y-66832927D01*
X147049500Y-66859285D01*
X147049500Y-77127850D01*
X147075457Y-77325007D01*
X147082874Y-77381340D01*
X147122812Y-77530390D01*
X147149050Y-77628312D01*
X147149053Y-77628322D01*
X147246894Y-77864531D01*
X147246897Y-77864537D01*
X147255486Y-77879414D01*
X147271958Y-77947314D01*
X147249105Y-78013341D01*
X147194183Y-78056531D01*
X147124630Y-78063172D01*
X147116005Y-78061188D01*
X147098625Y-78056531D01*
X146879116Y-77997714D01*
X146821339Y-77990107D01*
X146619127Y-77963484D01*
X146619120Y-77963484D01*
X145356880Y-77963484D01*
X145356872Y-77963484D01*
X145125772Y-77993910D01*
X145096884Y-77997714D01*
X144877375Y-78056531D01*
X144843581Y-78065586D01*
X144843571Y-78065589D01*
X144601309Y-78165937D01*
X144601299Y-78165942D01*
X144374196Y-78297059D01*
X144166148Y-78456702D01*
X143980718Y-78642132D01*
X143821075Y-78850180D01*
X143689958Y-79077283D01*
X143689953Y-79077293D01*
X143589605Y-79319555D01*
X143589602Y-79319565D01*
X143525281Y-79559618D01*
X143521730Y-79572869D01*
X143487500Y-79832856D01*
X143487500Y-80095111D01*
X143514123Y-80297323D01*
X143521730Y-80355100D01*
X143589602Y-80608402D01*
X143589605Y-80608412D01*
X143689953Y-80850674D01*
X143689958Y-80850684D01*
X143821075Y-81077787D01*
X143980718Y-81285835D01*
X143980726Y-81285844D01*
X144166140Y-81471258D01*
X144166148Y-81471265D01*
X144374196Y-81630908D01*
X144601299Y-81762025D01*
X144601309Y-81762030D01*
X144799630Y-81844177D01*
X144843581Y-81862382D01*
X144929056Y-81885284D01*
X144988713Y-81921647D01*
X145019243Y-81984494D01*
X145010949Y-82053870D01*
X144966464Y-82107748D01*
X144937916Y-82122099D01*
X144884758Y-82140700D01*
X144884755Y-82140701D01*
X144581138Y-82286915D01*
X144431852Y-82380719D01*
X144295780Y-82466219D01*
X144032300Y-82676336D01*
X143904672Y-82803964D01*
X143843349Y-82837448D01*
X143841183Y-82837899D01*
X143766508Y-82852753D01*
X143766500Y-82852755D01*
X143620827Y-82913094D01*
X143620814Y-82913101D01*
X143489711Y-83000702D01*
X143489707Y-83000705D01*
X143378213Y-83112199D01*
X143378210Y-83112203D01*
X143290609Y-83243306D01*
X143290602Y-83243319D01*
X143230264Y-83388990D01*
X143230261Y-83389002D01*
X143199500Y-83543645D01*
X143199500Y-83701338D01*
X143211536Y-83761846D01*
X143206961Y-83826991D01*
X143100224Y-84132028D01*
X143100223Y-84132030D01*
X143025233Y-84460586D01*
X143025231Y-84460602D01*
X142987500Y-84795474D01*
X142987500Y-85132493D01*
X143025231Y-85467365D01*
X143025233Y-85467381D01*
X143100223Y-85795935D01*
X143211534Y-86114043D01*
X143211802Y-86114690D01*
X143211820Y-86114861D01*
X143212680Y-86117318D01*
X143212106Y-86117518D01*
X143219271Y-86184160D01*
X143218858Y-86186334D01*
X143199500Y-86283653D01*
X143199500Y-86441346D01*
X143230261Y-86595989D01*
X143230264Y-86596001D01*
X143290602Y-86741672D01*
X143290609Y-86741685D01*
X143378210Y-86872788D01*
X143378213Y-86872792D01*
X143489707Y-86984286D01*
X143489711Y-86984289D01*
X143620814Y-87071890D01*
X143620827Y-87071897D01*
X143766498Y-87132235D01*
X143766503Y-87132237D01*
X143896390Y-87158073D01*
X143912365Y-87161251D01*
X143974276Y-87193636D01*
X143975855Y-87195187D01*
X143985476Y-87204808D01*
X144248961Y-87414930D01*
X144534314Y-87594230D01*
X144837949Y-87740453D01*
X144987174Y-87792669D01*
X145043950Y-87833390D01*
X145069697Y-87898343D01*
X145056241Y-87966905D01*
X145007853Y-88017307D01*
X144978314Y-88029484D01*
X144843581Y-88065586D01*
X144843579Y-88065586D01*
X144843578Y-88065587D01*
X144843571Y-88065589D01*
X144601309Y-88165937D01*
X144601299Y-88165942D01*
X144374196Y-88297059D01*
X144166148Y-88456702D01*
X143980718Y-88642132D01*
X143821075Y-88850180D01*
X143689958Y-89077283D01*
X143689953Y-89077293D01*
X143589605Y-89319555D01*
X143589602Y-89319565D01*
X143521730Y-89572869D01*
X143487500Y-89832856D01*
X143487500Y-90095111D01*
X143512874Y-90287835D01*
X143521730Y-90355100D01*
X143562193Y-90506111D01*
X143589602Y-90608402D01*
X143589605Y-90608412D01*
X143689953Y-90850674D01*
X143689958Y-90850684D01*
X143821075Y-91077787D01*
X143980718Y-91285835D01*
X143980726Y-91285844D01*
X144166140Y-91471258D01*
X144166148Y-91471265D01*
X144166149Y-91471266D01*
X144202578Y-91499219D01*
X144374196Y-91630908D01*
X144601299Y-91762025D01*
X144601309Y-91762030D01*
X144806974Y-91847219D01*
X144843581Y-91862382D01*
X145096884Y-91930254D01*
X145356880Y-91964484D01*
X145356887Y-91964484D01*
X146619113Y-91964484D01*
X146619120Y-91964484D01*
X146879116Y-91930254D01*
X147132419Y-91862382D01*
X147374697Y-91762027D01*
X147601803Y-91630908D01*
X147809851Y-91471266D01*
X147809855Y-91471261D01*
X147809860Y-91471258D01*
X147995274Y-91285844D01*
X147995277Y-91285839D01*
X147995282Y-91285835D01*
X148154924Y-91077787D01*
X148286043Y-90850681D01*
X148386398Y-90608403D01*
X148454270Y-90355100D01*
X148488500Y-90095104D01*
X148488500Y-89832864D01*
X148454270Y-89572868D01*
X148386398Y-89319565D01*
X148386394Y-89319555D01*
X148286046Y-89077293D01*
X148286041Y-89077283D01*
X148154924Y-88850180D01*
X147995281Y-88642132D01*
X147995274Y-88642124D01*
X147809860Y-88456710D01*
X147809851Y-88456702D01*
X147601803Y-88297059D01*
X147374700Y-88165942D01*
X147374690Y-88165938D01*
X147351246Y-88156227D01*
X147296843Y-88112386D01*
X147274778Y-88046092D01*
X147292057Y-87978393D01*
X147343194Y-87930782D01*
X147398699Y-87917666D01*
X150831496Y-87917666D01*
X174864107Y-87917666D01*
X174931146Y-87937351D01*
X174976901Y-87990155D01*
X174988107Y-88041666D01*
X174988106Y-88799068D01*
X174988106Y-89965036D01*
X174988107Y-89965042D01*
X174994514Y-90024649D01*
X175044808Y-90159494D01*
X175044812Y-90159501D01*
X175131058Y-90274710D01*
X175131061Y-90274713D01*
X175246270Y-90360959D01*
X175246277Y-90360963D01*
X175381123Y-90411257D01*
X175381122Y-90411257D01*
X175388050Y-90412001D01*
X175440733Y-90417666D01*
X176345846Y-90417665D01*
X176345852Y-90417666D01*
X176370514Y-90417666D01*
X176631361Y-90417666D01*
X176631365Y-90417665D01*
X178362902Y-90417665D01*
X178362918Y-90417666D01*
X178370514Y-90417666D01*
X178616688Y-90417666D01*
X178616700Y-90417665D01*
X180343190Y-90417665D01*
X180410229Y-90437350D01*
X180455984Y-90490154D01*
X180465928Y-90559312D01*
X180436903Y-90622868D01*
X180396992Y-90653385D01*
X180257166Y-90720721D01*
X180019362Y-90870144D01*
X179799784Y-91045251D01*
X179601192Y-91243843D01*
X179426085Y-91463421D01*
X179276662Y-91701225D01*
X179154809Y-91954256D01*
X179062052Y-92219338D01*
X179062048Y-92219350D01*
X178999554Y-92493155D01*
X178999551Y-92493173D01*
X178968109Y-92772236D01*
X178968109Y-93053099D01*
X178999551Y-93332162D01*
X178999554Y-93332180D01*
X179062048Y-93605985D01*
X179062052Y-93605997D01*
X179154809Y-93871079D01*
X179276662Y-94124110D01*
X179276664Y-94124113D01*
X179426086Y-94361916D01*
X179473621Y-94421523D01*
X179598178Y-94577713D01*
X179601193Y-94581493D01*
X179799784Y-94780084D01*
X180019361Y-94955191D01*
X180257164Y-95104613D01*
X180510201Y-95226469D01*
X180709289Y-95296133D01*
X180775279Y-95319224D01*
X180775291Y-95319228D01*
X181049100Y-95381723D01*
X181049106Y-95381723D01*
X181049114Y-95381725D01*
X181235156Y-95402686D01*
X181328178Y-95413167D01*
X181328181Y-95413168D01*
X181328184Y-95413168D01*
X181609037Y-95413168D01*
X181609038Y-95413167D01*
X181751664Y-95397097D01*
X181888103Y-95381725D01*
X181888108Y-95381724D01*
X181888118Y-95381723D01*
X182161927Y-95319228D01*
X182427017Y-95226469D01*
X182680054Y-95104613D01*
X182917857Y-94955191D01*
X183137434Y-94780084D01*
X183336025Y-94581493D01*
X183511132Y-94361916D01*
X183660554Y-94124113D01*
X183782410Y-93871076D01*
X183875169Y-93605986D01*
X183937664Y-93332177D01*
X183969109Y-93053093D01*
X183969109Y-92772243D01*
X183937664Y-92493159D01*
X183875169Y-92219350D01*
X183782410Y-91954260D01*
X183660554Y-91701223D01*
X183511132Y-91463420D01*
X183336025Y-91243843D01*
X183137434Y-91045252D01*
X182917857Y-90870145D01*
X182680054Y-90720723D01*
X182680051Y-90720721D01*
X182427020Y-90598868D01*
X182161938Y-90506111D01*
X182161930Y-90506108D01*
X181930305Y-90453242D01*
X181869327Y-90419133D01*
X181836469Y-90357472D01*
X181842164Y-90287835D01*
X181858628Y-90258046D01*
X181932402Y-90159497D01*
X181982697Y-90024649D01*
X181989106Y-89965039D01*
X181989106Y-85003777D01*
X181989106Y-84799074D01*
X181989106Y-84791479D01*
X181989105Y-84791461D01*
X181989105Y-81035263D01*
X181989106Y-81035258D01*
X181989106Y-80799074D01*
X181989105Y-80799068D01*
X181989105Y-79869294D01*
X181982697Y-79809683D01*
X181968494Y-79771604D01*
X181932403Y-79674837D01*
X181932399Y-79674830D01*
X181846153Y-79559621D01*
X181846150Y-79559618D01*
X181730941Y-79473372D01*
X181730934Y-79473368D01*
X181596088Y-79423074D01*
X181596089Y-79423074D01*
X181536489Y-79416667D01*
X181536487Y-79416666D01*
X181536479Y-79416666D01*
X180606698Y-79416666D01*
X180370514Y-79416666D01*
X180370512Y-79416666D01*
X178606701Y-79416666D01*
X178606698Y-79416666D01*
X178370514Y-79416666D01*
X178370510Y-79416666D01*
X176606703Y-79416666D01*
X176606698Y-79416666D01*
X176370514Y-79416666D01*
X176370508Y-79416666D01*
X175440735Y-79416666D01*
X175440729Y-79416667D01*
X175381122Y-79423074D01*
X175246277Y-79473368D01*
X175246270Y-79473372D01*
X175131061Y-79559618D01*
X175131058Y-79559621D01*
X175044812Y-79674830D01*
X175044808Y-79674837D01*
X174994514Y-79809683D01*
X174989182Y-79859285D01*
X174988107Y-79869289D01*
X174988106Y-79869301D01*
X174988106Y-81792666D01*
X174968421Y-81859705D01*
X174915617Y-81905460D01*
X174864106Y-81916666D01*
X153074500Y-81916666D01*
X153007461Y-81896981D01*
X152961706Y-81844177D01*
X152950500Y-81792666D01*
X152950500Y-78872163D01*
X152950499Y-78872149D01*
X152947607Y-78850180D01*
X152917126Y-78618660D01*
X152850950Y-78371687D01*
X152753104Y-78135465D01*
X152753102Y-78135462D01*
X152753100Y-78135457D01*
X152625265Y-77914042D01*
X152625261Y-77914035D01*
X152469610Y-77711187D01*
X152469606Y-77711182D01*
X152288813Y-77530390D01*
X150986819Y-76228396D01*
X150953334Y-76167073D01*
X150950500Y-76140715D01*
X150950500Y-67425646D01*
X151839500Y-67425646D01*
X151839500Y-67654353D01*
X151875278Y-67880246D01*
X151875278Y-67880249D01*
X151945950Y-68097755D01*
X151945952Y-68097758D01*
X152049783Y-68301538D01*
X152184214Y-68486566D01*
X152345934Y-68648286D01*
X152530962Y-68782717D01*
X152734742Y-68886548D01*
X152734744Y-68886549D01*
X152952251Y-68957221D01*
X152952252Y-68957221D01*
X152952255Y-68957222D01*
X153178146Y-68993000D01*
X153178147Y-68993000D01*
X153501853Y-68993000D01*
X153501854Y-68993000D01*
X153727745Y-68957222D01*
X153727748Y-68957221D01*
X153727749Y-68957221D01*
X153945255Y-68886549D01*
X153945255Y-68886548D01*
X153945258Y-68886548D01*
X154149038Y-68782717D01*
X154334066Y-68648286D01*
X154495786Y-68486566D01*
X154630217Y-68301538D01*
X154734048Y-68097758D01*
X154804722Y-67880245D01*
X154840500Y-67654354D01*
X154840500Y-67425646D01*
X154804722Y-67199755D01*
X154804721Y-67199751D01*
X154804721Y-67199750D01*
X154734049Y-66982244D01*
X154630216Y-66778461D01*
X154625234Y-66771604D01*
X154495786Y-66593434D01*
X154334066Y-66431714D01*
X154149038Y-66297283D01*
X153945255Y-66193450D01*
X153727748Y-66122778D01*
X153558326Y-66095944D01*
X153501854Y-66087000D01*
X153178146Y-66087000D01*
X153102849Y-66098926D01*
X152952253Y-66122778D01*
X152952250Y-66122778D01*
X152734744Y-66193450D01*
X152530961Y-66297283D01*
X152425396Y-66373980D01*
X152345934Y-66431714D01*
X152345932Y-66431716D01*
X152345931Y-66431716D01*
X152184216Y-66593431D01*
X152184216Y-66593432D01*
X152184214Y-66593434D01*
X152130820Y-66666924D01*
X152049783Y-66778461D01*
X151945950Y-66982244D01*
X151875278Y-67199750D01*
X151875278Y-67199753D01*
X151839500Y-67425646D01*
X150950500Y-67425646D01*
X150950500Y-65872163D01*
X150950499Y-65872149D01*
X150948999Y-65860760D01*
X150917126Y-65618660D01*
X150850950Y-65371687D01*
X150753104Y-65135465D01*
X150753102Y-65135462D01*
X150753100Y-65135457D01*
X150625265Y-64914042D01*
X150625261Y-64914035D01*
X150469611Y-64711187D01*
X150469606Y-64711181D01*
X147218060Y-61459635D01*
X151839500Y-61459635D01*
X151839500Y-63460370D01*
X151839501Y-63460376D01*
X151845908Y-63519983D01*
X151896202Y-63654828D01*
X151896206Y-63654835D01*
X151982452Y-63770044D01*
X151982455Y-63770047D01*
X152097664Y-63856293D01*
X152097671Y-63856297D01*
X152232517Y-63906591D01*
X152232516Y-63906591D01*
X152239444Y-63907335D01*
X152292127Y-63913000D01*
X154387872Y-63912999D01*
X154447483Y-63906591D01*
X154582331Y-63856296D01*
X154697546Y-63770046D01*
X154783796Y-63654831D01*
X154834091Y-63519983D01*
X154840500Y-63460373D01*
X154840499Y-61459628D01*
X154834091Y-61400017D01*
X154783796Y-61265169D01*
X154783795Y-61265168D01*
X154783793Y-61265164D01*
X154697547Y-61149955D01*
X154697544Y-61149952D01*
X154582335Y-61063706D01*
X154582328Y-61063702D01*
X154447482Y-61013408D01*
X154447483Y-61013408D01*
X154387883Y-61007001D01*
X154387881Y-61007000D01*
X154387873Y-61007000D01*
X154387864Y-61007000D01*
X152292129Y-61007000D01*
X152292123Y-61007001D01*
X152232516Y-61013408D01*
X152097671Y-61063702D01*
X152097664Y-61063706D01*
X151982455Y-61149952D01*
X151982452Y-61149955D01*
X151896206Y-61265164D01*
X151896202Y-61265171D01*
X151845908Y-61400017D01*
X151843557Y-61421889D01*
X151839501Y-61459623D01*
X151839500Y-61459635D01*
X147218060Y-61459635D01*
X145692533Y-59934108D01*
X165499500Y-59934108D01*
X165499500Y-70065891D01*
X165533608Y-70193187D01*
X165566554Y-70250250D01*
X165599500Y-70307314D01*
X165692686Y-70400500D01*
X165806814Y-70466392D01*
X165934108Y-70500500D01*
X165934110Y-70500500D01*
X173065890Y-70500500D01*
X173065892Y-70500500D01*
X173193186Y-70466392D01*
X173307314Y-70400500D01*
X173400500Y-70307314D01*
X173466392Y-70193186D01*
X173500500Y-70065892D01*
X173500500Y-59934108D01*
X173466392Y-59806814D01*
X173400500Y-59692686D01*
X173307314Y-59599500D01*
X173250250Y-59566554D01*
X173193187Y-59533608D01*
X173129539Y-59516554D01*
X173065892Y-59499500D01*
X166065892Y-59499500D01*
X165934108Y-59499500D01*
X165806812Y-59533608D01*
X165692686Y-59599500D01*
X165692683Y-59599502D01*
X165599502Y-59692683D01*
X165599500Y-59692686D01*
X165533608Y-59806812D01*
X165499500Y-59934108D01*
X145692533Y-59934108D01*
X136986819Y-51228394D01*
X136953334Y-51167071D01*
X136950500Y-51140713D01*
X136950500Y-47454038D01*
X148399500Y-47454038D01*
X148399500Y-47705961D01*
X148438910Y-47954785D01*
X148516760Y-48194383D01*
X148631132Y-48418848D01*
X148779201Y-48622649D01*
X148779205Y-48622654D01*
X148957345Y-48800794D01*
X148957350Y-48800798D01*
X149026379Y-48850950D01*
X149161155Y-48948870D01*
X149304184Y-49021747D01*
X149385616Y-49063239D01*
X149385618Y-49063239D01*
X149385621Y-49063241D01*
X149625215Y-49141090D01*
X149874038Y-49180500D01*
X149874039Y-49180500D01*
X150125961Y-49180500D01*
X150125962Y-49180500D01*
X150374785Y-49141090D01*
X150614379Y-49063241D01*
X150838845Y-48948870D01*
X151042656Y-48800793D01*
X151220793Y-48622656D01*
X151368870Y-48418845D01*
X151483241Y-48194379D01*
X151561090Y-47954785D01*
X151600500Y-47705962D01*
X151600500Y-47454038D01*
X151587829Y-47374038D01*
X158399500Y-47374038D01*
X158399500Y-47625961D01*
X158438910Y-47874785D01*
X158516760Y-48114383D01*
X158631132Y-48338848D01*
X158779201Y-48542649D01*
X158779205Y-48542654D01*
X158957345Y-48720794D01*
X158957350Y-48720798D01*
X159135117Y-48849952D01*
X159161155Y-48868870D01*
X159255863Y-48917126D01*
X159385616Y-48983239D01*
X159385618Y-48983239D01*
X159385621Y-48983241D01*
X159625215Y-49061090D01*
X159874038Y-49100500D01*
X159874039Y-49100500D01*
X160125961Y-49100500D01*
X160125962Y-49100500D01*
X160374785Y-49061090D01*
X160614379Y-48983241D01*
X160838845Y-48868870D01*
X161042656Y-48720793D01*
X161220793Y-48542656D01*
X161368870Y-48338845D01*
X161483241Y-48114379D01*
X161561090Y-47874785D01*
X161600500Y-47625962D01*
X161600500Y-47374038D01*
X161561090Y-47125215D01*
X161483241Y-46885621D01*
X161483239Y-46885618D01*
X161483239Y-46885616D01*
X161409630Y-46741151D01*
X161368870Y-46661155D01*
X161349952Y-46635117D01*
X161220798Y-46457350D01*
X161220794Y-46457345D01*
X161042654Y-46279205D01*
X161042649Y-46279201D01*
X160838848Y-46131132D01*
X160838847Y-46131131D01*
X160838845Y-46131130D01*
X160768747Y-46095413D01*
X160614383Y-46016760D01*
X160374785Y-45938910D01*
X160125962Y-45899500D01*
X159874038Y-45899500D01*
X159749626Y-45919205D01*
X159625214Y-45938910D01*
X159385616Y-46016760D01*
X159161151Y-46131132D01*
X158957350Y-46279201D01*
X158957345Y-46279205D01*
X158779205Y-46457345D01*
X158779201Y-46457350D01*
X158631132Y-46661151D01*
X158516760Y-46885616D01*
X158438910Y-47125214D01*
X158399500Y-47374038D01*
X151587829Y-47374038D01*
X151561090Y-47205215D01*
X151483241Y-46965621D01*
X151483239Y-46965618D01*
X151483239Y-46965616D01*
X151435374Y-46871677D01*
X151368870Y-46741155D01*
X151310744Y-46661151D01*
X151220798Y-46537350D01*
X151220794Y-46537345D01*
X151042654Y-46359205D01*
X151042649Y-46359201D01*
X150838848Y-46211132D01*
X150838847Y-46211131D01*
X150838845Y-46211130D01*
X150768747Y-46175413D01*
X150614383Y-46096760D01*
X150374785Y-46018910D01*
X150125962Y-45979500D01*
X149874038Y-45979500D01*
X149749626Y-45999205D01*
X149625214Y-46018910D01*
X149385616Y-46096760D01*
X149161151Y-46211132D01*
X148957350Y-46359201D01*
X148957345Y-46359205D01*
X148779205Y-46537345D01*
X148779201Y-46537350D01*
X148631132Y-46741151D01*
X148516760Y-46965616D01*
X148438910Y-47205214D01*
X148399500Y-47454038D01*
X136950500Y-47454038D01*
X136950500Y-47372163D01*
X136950499Y-47372149D01*
X136928521Y-47205215D01*
X136917126Y-47118660D01*
X136850950Y-46871687D01*
X136753104Y-46635465D01*
X136717113Y-46573126D01*
X136700500Y-46511126D01*
X136700500Y-46499997D01*
X136700499Y-46499984D01*
X136689999Y-46397204D01*
X136689999Y-46397203D01*
X136634814Y-46230666D01*
X136622765Y-46211132D01*
X136542713Y-46081348D01*
X136542710Y-46081344D01*
X136418655Y-45957289D01*
X136418651Y-45957286D01*
X136269337Y-45865187D01*
X136269335Y-45865186D01*
X136186065Y-45837593D01*
X136102797Y-45810001D01*
X136102795Y-45810000D01*
X136000015Y-45799500D01*
X136000008Y-45799500D01*
X135988873Y-45799500D01*
X135926873Y-45782887D01*
X135864537Y-45746897D01*
X135864528Y-45746893D01*
X135628322Y-45649053D01*
X135628315Y-45649051D01*
X135628313Y-45649050D01*
X135381340Y-45582874D01*
X135325007Y-45575457D01*
X135127850Y-45549500D01*
X135127843Y-45549500D01*
X134872157Y-45549500D01*
X134872149Y-45549500D01*
X134646826Y-45579165D01*
X134618660Y-45582874D01*
X134371687Y-45649050D01*
X134371677Y-45649053D01*
X134135471Y-45746893D01*
X134135462Y-45746897D01*
X134073127Y-45782887D01*
X134011127Y-45799500D01*
X133999984Y-45799500D01*
X133897204Y-45810000D01*
X133897203Y-45810001D01*
X133730664Y-45865186D01*
X133730662Y-45865187D01*
X133581348Y-45957286D01*
X133581344Y-45957289D01*
X133457289Y-46081344D01*
X133457286Y-46081348D01*
X133365187Y-46230662D01*
X133365186Y-46230664D01*
X133310001Y-46397203D01*
X133310000Y-46397204D01*
X133299500Y-46499984D01*
X133299500Y-46511126D01*
X133282887Y-46573126D01*
X133246897Y-46635461D01*
X133246893Y-46635471D01*
X133149053Y-46871677D01*
X133149050Y-46871687D01*
X133082874Y-47118661D01*
X133049500Y-47372149D01*
X110500500Y-47372149D01*
X110500500Y-42374038D01*
X148399500Y-42374038D01*
X148399500Y-42625961D01*
X148438910Y-42874785D01*
X148516760Y-43114383D01*
X148631132Y-43338848D01*
X148779201Y-43542649D01*
X148779205Y-43542654D01*
X148957345Y-43720794D01*
X148957350Y-43720798D01*
X149040677Y-43781338D01*
X149161155Y-43868870D01*
X149304184Y-43941747D01*
X149385616Y-43983239D01*
X149385618Y-43983239D01*
X149385621Y-43983241D01*
X149625215Y-44061090D01*
X149874038Y-44100500D01*
X149874039Y-44100500D01*
X150125961Y-44100500D01*
X150125962Y-44100500D01*
X150374785Y-44061090D01*
X150614379Y-43983241D01*
X150838845Y-43868870D01*
X151042656Y-43720793D01*
X151220793Y-43542656D01*
X151368870Y-43338845D01*
X151483241Y-43114379D01*
X151561090Y-42874785D01*
X151600500Y-42625962D01*
X151600500Y-42374038D01*
X151587829Y-42294038D01*
X158399500Y-42294038D01*
X158399500Y-42545961D01*
X158438910Y-42794785D01*
X158516760Y-43034383D01*
X158631132Y-43258848D01*
X158779201Y-43462649D01*
X158779205Y-43462654D01*
X158957345Y-43640794D01*
X158957350Y-43640798D01*
X159135117Y-43769952D01*
X159161155Y-43788870D01*
X159304184Y-43861747D01*
X159385616Y-43903239D01*
X159385618Y-43903239D01*
X159385621Y-43903241D01*
X159625215Y-43981090D01*
X159874038Y-44020500D01*
X159874039Y-44020500D01*
X160125961Y-44020500D01*
X160125962Y-44020500D01*
X160374785Y-43981090D01*
X160614379Y-43903241D01*
X160838845Y-43788870D01*
X161042656Y-43640793D01*
X161220793Y-43462656D01*
X161368870Y-43258845D01*
X161483241Y-43034379D01*
X161561090Y-42794785D01*
X161600500Y-42545962D01*
X161600500Y-42294038D01*
X161561090Y-42045215D01*
X161483241Y-41805621D01*
X161483239Y-41805618D01*
X161483239Y-41805616D01*
X161409630Y-41661151D01*
X161368870Y-41581155D01*
X161278917Y-41457345D01*
X161220798Y-41377350D01*
X161220794Y-41377345D01*
X161042654Y-41199205D01*
X161042649Y-41199201D01*
X160838848Y-41051132D01*
X160838847Y-41051131D01*
X160838845Y-41051130D01*
X160768747Y-41015413D01*
X160614383Y-40936760D01*
X160374785Y-40858910D01*
X160125962Y-40819500D01*
X159874038Y-40819500D01*
X159749626Y-40839205D01*
X159625214Y-40858910D01*
X159385616Y-40936760D01*
X159161151Y-41051132D01*
X158957350Y-41199201D01*
X158957345Y-41199205D01*
X158779205Y-41377345D01*
X158779201Y-41377350D01*
X158631132Y-41581151D01*
X158516760Y-41805616D01*
X158438910Y-42045214D01*
X158399500Y-42294038D01*
X151587829Y-42294038D01*
X151561090Y-42125215D01*
X151483241Y-41885621D01*
X151483239Y-41885618D01*
X151483239Y-41885616D01*
X151441747Y-41804184D01*
X151368870Y-41661155D01*
X151310744Y-41581151D01*
X151220798Y-41457350D01*
X151220794Y-41457345D01*
X151042654Y-41279205D01*
X151042649Y-41279201D01*
X150838848Y-41131132D01*
X150838847Y-41131131D01*
X150838845Y-41131130D01*
X150768747Y-41095413D01*
X150614383Y-41016760D01*
X150374785Y-40938910D01*
X150125962Y-40899500D01*
X149874038Y-40899500D01*
X149749626Y-40919205D01*
X149625214Y-40938910D01*
X149385616Y-41016760D01*
X149161151Y-41131132D01*
X148957350Y-41279201D01*
X148957345Y-41279205D01*
X148779205Y-41457345D01*
X148779201Y-41457350D01*
X148631132Y-41661151D01*
X148516760Y-41885616D01*
X148438910Y-42125214D01*
X148399500Y-42374038D01*
X110500500Y-42374038D01*
X110500500Y-40295260D01*
X167599500Y-40295260D01*
X167599500Y-42704739D01*
X167609987Y-42837982D01*
X167665426Y-43058002D01*
X167759258Y-43264579D01*
X167759263Y-43264589D01*
X167888473Y-43451090D01*
X168032513Y-43595130D01*
X168065998Y-43656453D01*
X168067771Y-43666625D01*
X168082874Y-43781340D01*
X168136973Y-43983241D01*
X168149050Y-44028312D01*
X168149053Y-44028322D01*
X168246894Y-44264531D01*
X168246899Y-44264542D01*
X168374734Y-44485957D01*
X168374745Y-44485973D01*
X168530388Y-44688811D01*
X168530394Y-44688818D01*
X172311181Y-48469606D01*
X172311188Y-48469612D01*
X172455620Y-48580438D01*
X172514035Y-48625261D01*
X172514042Y-48625265D01*
X172735457Y-48753100D01*
X172735462Y-48753102D01*
X172735465Y-48753104D01*
X172971687Y-48850950D01*
X173218660Y-48917126D01*
X173472157Y-48950500D01*
X173727843Y-48950500D01*
X180140715Y-48950500D01*
X180207754Y-48970185D01*
X180228396Y-48986819D01*
X185013181Y-53771604D01*
X185046666Y-53832927D01*
X185049500Y-53859285D01*
X185049500Y-117140715D01*
X185029815Y-117207754D01*
X185013181Y-117228396D01*
X179237654Y-123003923D01*
X179176331Y-123037408D01*
X179149973Y-123040242D01*
X172355291Y-123040242D01*
X172129968Y-123069907D01*
X172101802Y-123073616D01*
X171854829Y-123139792D01*
X171854819Y-123139795D01*
X171618610Y-123237636D01*
X171618599Y-123237641D01*
X171397184Y-123365476D01*
X171397168Y-123365487D01*
X171194330Y-123521130D01*
X171194323Y-123521136D01*
X171013536Y-123701923D01*
X171013530Y-123701930D01*
X170857887Y-123904768D01*
X170857876Y-123904784D01*
X170730041Y-124126199D01*
X170730036Y-124126210D01*
X170632195Y-124362419D01*
X170632192Y-124362429D01*
X170569285Y-124597204D01*
X170566016Y-124609403D01*
X170532642Y-124862891D01*
X170532642Y-125118592D01*
X170558599Y-125315749D01*
X170566016Y-125372082D01*
X170629279Y-125608182D01*
X170632192Y-125619054D01*
X170632195Y-125619064D01*
X170730036Y-125855273D01*
X170730041Y-125855284D01*
X170857876Y-126076699D01*
X170857887Y-126076715D01*
X171013530Y-126279553D01*
X171013536Y-126279560D01*
X171194323Y-126460347D01*
X171194329Y-126460352D01*
X171397177Y-126616003D01*
X171397184Y-126616007D01*
X171618599Y-126743842D01*
X171618604Y-126743844D01*
X171618607Y-126743846D01*
X171854829Y-126841692D01*
X172101802Y-126907868D01*
X172355299Y-126941242D01*
X172355306Y-126941242D01*
X180137094Y-126941242D01*
X180137101Y-126941242D01*
X180390598Y-126907868D01*
X180637571Y-126841692D01*
X180873793Y-126743846D01*
X181095223Y-126616003D01*
X181298071Y-126460352D01*
X188469610Y-119288813D01*
X188625261Y-119085965D01*
X188753104Y-118864535D01*
X188850950Y-118628313D01*
X188917126Y-118381340D01*
X188950500Y-118127843D01*
X188950500Y-117872157D01*
X188950500Y-52872157D01*
X188917126Y-52618660D01*
X188850950Y-52371687D01*
X188753104Y-52135465D01*
X188753102Y-52135462D01*
X188753100Y-52135457D01*
X188625265Y-51914042D01*
X188625261Y-51914035D01*
X188469610Y-51711187D01*
X188469606Y-51711182D01*
X188288813Y-51530390D01*
X182288818Y-45530394D01*
X182288811Y-45530388D01*
X182085973Y-45374745D01*
X182085971Y-45374743D01*
X182085965Y-45374739D01*
X182085960Y-45374736D01*
X182085957Y-45374734D01*
X181864542Y-45246899D01*
X181864531Y-45246894D01*
X181628322Y-45149053D01*
X181628315Y-45149051D01*
X181628313Y-45149050D01*
X181381340Y-45082874D01*
X181325007Y-45075457D01*
X181127850Y-45049500D01*
X181127843Y-45049500D01*
X174459286Y-45049500D01*
X174392247Y-45029815D01*
X174371605Y-45013181D01*
X172400798Y-43042374D01*
X172367313Y-42981051D01*
X172368237Y-42924399D01*
X172390013Y-42837983D01*
X172400500Y-42704736D01*
X172400500Y-40295264D01*
X172390013Y-40162017D01*
X172334574Y-39942000D01*
X172240740Y-39735418D01*
X172240736Y-39735410D01*
X172111526Y-39548909D01*
X171951090Y-39388473D01*
X171764589Y-39259263D01*
X171764579Y-39259258D01*
X171558002Y-39165426D01*
X171411322Y-39128466D01*
X171337983Y-39109987D01*
X171304671Y-39107365D01*
X171204739Y-39099500D01*
X171204736Y-39099500D01*
X168795264Y-39099500D01*
X168795260Y-39099500D01*
X168662017Y-39109987D01*
X168441997Y-39165426D01*
X168235420Y-39259258D01*
X168235410Y-39259263D01*
X168048909Y-39388473D01*
X167888473Y-39548909D01*
X167759263Y-39735410D01*
X167759258Y-39735420D01*
X167665426Y-39941997D01*
X167609987Y-40162017D01*
X167599500Y-40295260D01*
X110500500Y-40295260D01*
X110500500Y-35624500D01*
X110520185Y-35557461D01*
X110572989Y-35511706D01*
X110624500Y-35500500D01*
X189375500Y-35500500D01*
X189442539Y-35520185D01*
G37*
%TD.AperFunction*%
%TD*%
M02*
