%TF.GenerationSoftware,KiCad,Pcbnew,10.0.1*%
%TF.CreationDate,2026-05-14T07:58:50+02:00*%
%TF.ProjectId,K_Pennywhistle,4b5f5065-6e6e-4797-9768-6973746c652e,rev?*%
%TF.SameCoordinates,Original*%
%TF.FileFunction,Paste,Top*%
%TF.FilePolarity,Positive*%
%FSLAX46Y46*%
G04 Gerber Fmt 4.6, Leading zero omitted, Abs format (unit mm)*
G04 Created by KiCad (PCBNEW 10.0.1) date 2026-05-14 07:58:50*
%MOMM*%
%LPD*%
G01*
G04 APERTURE LIST*
G04 Aperture macros list*
%AMRoundRect*
0 Rectangle with rounded corners*
0 $1 Rounding radius*
0 $2 $3 $4 $5 $6 $7 $8 $9 X,Y pos of 4 corners*
0 Add a 4 corners polygon primitive as box body*
4,1,4,$2,$3,$4,$5,$6,$7,$8,$9,$2,$3,0*
0 Add four circle primitives for the rounded corners*
1,1,$1+$1,$2,$3*
1,1,$1+$1,$4,$5*
1,1,$1+$1,$6,$7*
1,1,$1+$1,$8,$9*
0 Add four rect primitives between the rounded corners*
20,1,$1+$1,$2,$3,$4,$5,0*
20,1,$1+$1,$4,$5,$6,$7,0*
20,1,$1+$1,$6,$7,$8,$9,0*
20,1,$1+$1,$8,$9,$2,$3,0*%
G04 Aperture macros list end*
%ADD10RoundRect,0.250000X-0.412500X-0.650000X0.412500X-0.650000X0.412500X0.650000X-0.412500X0.650000X0*%
%ADD11RoundRect,0.250000X0.650000X-0.412500X0.650000X0.412500X-0.650000X0.412500X-0.650000X-0.412500X0*%
%ADD12RoundRect,0.250000X-0.350000X-0.450000X0.350000X-0.450000X0.350000X0.450000X-0.350000X0.450000X0*%
%ADD13RoundRect,0.250000X0.475000X-0.337500X0.475000X0.337500X-0.475000X0.337500X-0.475000X-0.337500X0*%
%ADD14RoundRect,0.250000X-0.475000X0.337500X-0.475000X-0.337500X0.475000X-0.337500X0.475000X0.337500X0*%
%ADD15RoundRect,0.250000X0.450000X-0.350000X0.450000X0.350000X-0.450000X0.350000X-0.450000X-0.350000X0*%
%ADD16O,4.000000X3.000000*%
%ADD17RoundRect,0.375000X0.375000X-0.625000X0.375000X0.625000X-0.375000X0.625000X-0.375000X-0.625000X0*%
%ADD18RoundRect,0.500000X1.400000X-0.500000X1.400000X0.500000X-1.400000X0.500000X-1.400000X-0.500000X0*%
%ADD19RoundRect,0.250000X0.412500X0.650000X-0.412500X0.650000X-0.412500X-0.650000X0.412500X-0.650000X0*%
%ADD20RoundRect,0.250000X0.400000X1.450000X-0.400000X1.450000X-0.400000X-1.450000X0.400000X-1.450000X0*%
%ADD21RoundRect,0.250000X-1.450000X0.400000X-1.450000X-0.400000X1.450000X-0.400000X1.450000X0.400000X0*%
%ADD22R,4.000000X8.000000*%
%ADD23RoundRect,0.250000X-0.650000X0.412500X-0.650000X-0.412500X0.650000X-0.412500X0.650000X0.412500X0*%
%ADD24RoundRect,0.243750X0.456250X-0.243750X0.456250X0.243750X-0.456250X0.243750X-0.456250X-0.243750X0*%
%ADD25RoundRect,0.250000X-0.337500X-0.475000X0.337500X-0.475000X0.337500X0.475000X-0.337500X0.475000X0*%
%ADD26RoundRect,0.250000X-1.125000X1.275000X-1.125000X-1.275000X1.125000X-1.275000X1.125000X1.275000X0*%
%ADD27RoundRect,0.250000X-0.350000X0.850000X-0.350000X-0.850000X0.350000X-0.850000X0.350000X0.850000X0*%
%ADD28RoundRect,0.250000X-0.400000X-1.450000X0.400000X-1.450000X0.400000X1.450000X-0.400000X1.450000X0*%
%ADD29RoundRect,0.250000X-0.450000X0.350000X-0.450000X-0.350000X0.450000X-0.350000X0.450000X0.350000X0*%
G04 APERTURE END LIST*
D10*
%TO.C,C22*%
X156875000Y-120976379D03*
X160000000Y-120976379D03*
%TD*%
D11*
%TO.C,C11*%
X153000000Y-86562500D03*
X153000000Y-83437500D03*
%TD*%
D12*
%TO.C,R14*%
X125500000Y-98500000D03*
X127500000Y-98500000D03*
%TD*%
D11*
%TO.C,C3*%
X145000000Y-44062500D03*
X145000000Y-40937500D03*
%TD*%
%TO.C,C10*%
X140475394Y-83047492D03*
X140475394Y-79922492D03*
%TD*%
D13*
%TO.C,C15*%
X138000000Y-97037500D03*
X138000000Y-94962500D03*
%TD*%
D14*
%TO.C,C21*%
X129000000Y-121962500D03*
X129000000Y-124037500D03*
%TD*%
D10*
%TO.C,C51*%
X182500000Y-81989913D03*
X185625000Y-81989913D03*
%TD*%
D12*
%TO.C,R13*%
X146000000Y-103500000D03*
X148000000Y-103500000D03*
%TD*%
D15*
%TO.C,R3*%
X138000000Y-66500000D03*
X138000000Y-64500000D03*
%TD*%
%TO.C,R16*%
X142000000Y-104500000D03*
X142000000Y-102500000D03*
%TD*%
D12*
%TO.C,R18*%
X125500000Y-112500000D03*
X127500000Y-112500000D03*
%TD*%
D16*
%TO.C,T1*%
X113950780Y-80971189D03*
X113941538Y-88971189D03*
X129950780Y-88971189D03*
X129950780Y-84971189D03*
X129950780Y-80971189D03*
%TD*%
D17*
%TO.C,Q3*%
X142700000Y-125650000D03*
X145000000Y-125650000D03*
D18*
X145000000Y-119350000D03*
D17*
X147300000Y-125650000D03*
%TD*%
D19*
%TO.C,C6*%
X174562500Y-73000000D03*
X171437500Y-73000000D03*
%TD*%
D20*
%TO.C,R6*%
X126225000Y-64000000D03*
X121775000Y-64000000D03*
%TD*%
D21*
%TO.C,R7*%
X126000000Y-67775000D03*
X126000000Y-72225000D03*
%TD*%
D22*
%TO.C,T3*%
X154488606Y-78917166D03*
X154488606Y-90917166D03*
%TD*%
D11*
%TO.C,C4*%
X165000000Y-44062500D03*
X165000000Y-40937500D03*
%TD*%
D23*
%TO.C,C14*%
X131500000Y-94437500D03*
X131500000Y-97562500D03*
%TD*%
%TO.C,C13*%
X140500000Y-86937500D03*
X140500000Y-90062500D03*
%TD*%
D12*
%TO.C,R1*%
X146000000Y-63000000D03*
X148000000Y-63000000D03*
%TD*%
%TO.C,R19*%
X144000000Y-130000000D03*
X146000000Y-130000000D03*
%TD*%
D10*
%TO.C,C18*%
X142435207Y-109995031D03*
X145560207Y-109995031D03*
%TD*%
%TO.C,C17*%
X118937500Y-105000000D03*
X122062500Y-105000000D03*
%TD*%
D19*
%TO.C,C16*%
X174562500Y-97000000D03*
X171437500Y-97000000D03*
%TD*%
D15*
%TO.C,R15*%
X138000000Y-104500000D03*
X138000000Y-102500000D03*
%TD*%
D24*
%TO.C,D2*%
X153500000Y-101187500D03*
X153500000Y-99312500D03*
%TD*%
D21*
%TO.C,R8*%
X121000000Y-68000000D03*
X121000000Y-72450000D03*
%TD*%
D11*
%TO.C,C9*%
X131500000Y-77062500D03*
X131500000Y-73937500D03*
%TD*%
D10*
%TO.C,C24*%
X150932308Y-120979045D03*
X154057308Y-120979045D03*
%TD*%
D25*
%TO.C,C19*%
X141962500Y-107500000D03*
X144037500Y-107500000D03*
%TD*%
D10*
%TO.C,C7*%
X142927076Y-73998065D03*
X146052076Y-73998065D03*
%TD*%
D14*
%TO.C,C20*%
X140000000Y-123962500D03*
X140000000Y-126037500D03*
%TD*%
D10*
%TO.C,C26*%
X173437310Y-120979045D03*
X176562310Y-120979045D03*
%TD*%
%TO.C,C23*%
X165935643Y-121000000D03*
X169060643Y-121000000D03*
%TD*%
D15*
%TO.C,R12*%
X134484710Y-102500000D03*
X134484710Y-100500000D03*
%TD*%
D10*
%TO.C,C12*%
X182437500Y-88000000D03*
X185562500Y-88000000D03*
%TD*%
D14*
%TO.C,C8*%
X138000000Y-70962500D03*
X138000000Y-73037500D03*
%TD*%
D26*
%TO.C,U1*%
X135550000Y-125000000D03*
X132500000Y-125000000D03*
X135550000Y-128350000D03*
X132500000Y-128350000D03*
D27*
X136305000Y-120375000D03*
X134025000Y-120375000D03*
X131745000Y-120375000D03*
%TD*%
D25*
%TO.C,C5*%
X142462500Y-70500000D03*
X144537500Y-70500000D03*
%TD*%
D15*
%TO.C,R4*%
X142000000Y-66500000D03*
X142000000Y-64500000D03*
%TD*%
D20*
%TO.C,R5*%
X126225000Y-59000000D03*
X121775000Y-59000000D03*
%TD*%
D28*
%TO.C,R9*%
X112775000Y-69000000D03*
X117225000Y-69000000D03*
%TD*%
D11*
%TO.C,C1*%
X155000000Y-44062500D03*
X155000000Y-40937500D03*
%TD*%
D28*
%TO.C,R10*%
X112775000Y-74000000D03*
X117225000Y-74000000D03*
%TD*%
D29*
%TO.C,R2*%
X134000000Y-64500000D03*
X134000000Y-66500000D03*
%TD*%
D24*
%TO.C,D1*%
X153250000Y-60187500D03*
X153250000Y-58312500D03*
%TD*%
M02*
